<?xml version="1.0" encoding="UTF-8"?>
<svg width="44px" height="44px" viewBox="0 0 44 44" version="1.1" xmlns="http://www.w3.org/2000/svg" xmlns:xlink="http://www.w3.org/1999/xlink">
    <title>F51C4091-24B1-4CC3-8A67-49181C4ACDC8</title>
    <g id="Page-1" stroke="none" stroke-width="1" fill="none" fill-rule="evenodd">
        <g id="D/-2.2-PLP-Filtered-products" transform="translate(-1205.000000, -2159.000000)">
            <g id="d/-newsletter" transform="translate(0.000000, 2091.000000)">
                <g id="Icons-/-Social-/-Instagram" transform="translate(1205.000000, 68.000000)">
                    <rect id="Path" fill="#FFFFFF" fill-rule="nonzero" x="0" y="0" width="44" height="44" rx="22"></rect>
                    <path d="M26.7059914,10 C31.2869484,10 35,13.7128752 35,18.2936146 L35,18.2936146 L35,27.7051501 C35,32.2860584 31.2867797,36 26.7059914,36 L26.7059914,36 L17.2940086,36 C12.7132203,36 9,32.2860584 9,27.7051501 L9,27.7051501 L9,18.2936146 C9,13.7128752 12.7130516,10 17.2940086,10 L17.2940086,10 Z M26.7059914,12.4705435 L17.2940086,12.4705435 C14.0775599,12.4705435 11.4706609,15.0773187 11.4706609,18.2936146 L11.4706609,18.2936146 L11.4706609,27.7051501 C11.4706609,30.9217485 14.0778624,33.5294565 17.2940086,33.5294565 L17.2940086,33.5294565 L26.7059914,33.5294565 C29.9221376,33.5294565 32.5293391,30.9217485 32.5293391,27.7051501 L32.5293391,27.7051501 L32.5293391,18.2936146 C32.5293391,15.0773187 29.9224401,12.4705435 26.7059914,12.4705435 L26.7059914,12.4705435 Z M22,16 C25.8651829,16 29,19.1346345 29,23.0006075 C29,26.8664278 25.8653358,30 22,30 C18.1338295,30 15,26.8668077 15,23.0006075 C15,19.1342544 18.1339824,16 22,16 Z M22,18.4299228 C19.4758753,18.4299228 17.4297119,20.4762637 17.4297119,23.0006075 C17.4297119,25.5246406 19.4755646,27.5700772 22,27.5700772 C24.5236796,27.5700772 26.5702881,25.5241817 26.5702881,23.0006075 C26.5702881,20.4767227 24.5233689,18.4299228 22,18.4299228 Z M28.5,15 C29.3276328,15 30,15.6723672 30,16.5 C30,17.3289829 29.3276328,18 28.5,18 C27.6710171,18 27,17.3289829 27,16.5 C27,15.6723672 27.6710171,15 28.5,15 Z" id="Combined-Shape" fill="#291660"></path>
                </g>
            </g>
        </g>
    </g>
</svg>