<?xml version="1.0" encoding="UTF-8"?>
<svg width="46px" height="46px" viewBox="0 0 46 46" version="1.1" xmlns="http://www.w3.org/2000/svg" xmlns:xlink="http://www.w3.org/1999/xlink">
    <title>47C2DEB9-7030-4CCD-A57F-AAA507BB9C30</title>
    <g id="Page-1" stroke="none" stroke-width="1" fill="none" fill-rule="evenodd">
        <g id="D/-2.2-PLP-Filtered-products" transform="translate(-1335.000000, -2158.000000)" fill="#FFFFFF" fill-rule="nonzero">
            <g id="d/-newsletter" transform="translate(0.000000, 2091.000000)">
                <g id="icons-/social-/-Linkedin" transform="translate(1335.000000, 67.000000)">
                    <path d="M23,0 C35.7025492,0 46,10.2974508 46,23 C46,35.7025492 35.7025492,46 23,46 C10.2974508,46 0,35.7025492 0,23 C0,10.2974508 10.2974508,0 23,0 Z M26.2035869,20.1852606 C25.6675607,20.5534596 25.2083482,21.0352074 24.709059,21.4693649 L24.709059,19.6258654 L19.6343435,19.6258654 L19.6343435,34.8781516 L24.7040494,34.8781516 L24.7048844,26.2375829 L24.7048844,26.2375829 C24.7048844,26.0163295 24.7115638,25.7942413 24.7324371,25.5746578 C24.8752104,24.0993573 26.5141816,23.0131287 27.9252163,23.4548004 C29.1049749,23.8246692 29.7929587,24.7848251 29.7946286,26.0864627 L29.7967159,30.2861013 L29.7967159,30.2861013 L29.7962985,34.8831611 L29.7962985,34.8831611 L34.8818681,34.8831611 C34.8868777,34.7838058 34.8935571,34.7186822 34.8935571,34.6535586 C34.8935571,31.5109264 34.907751,28.3682942 34.8885475,25.225662 C34.8760235,23.1517251 33.9717924,21.508606 32.2869,20.3313713 C30.4684186,19.0606258 28.2141027,18.8051408 26.2035869,20.1852606 Z M16.1777259,19.63004 L11.1280583,19.63004 L11.1280583,34.8823262 L16.1777259,34.8823262 L16.1777259,19.63004 Z M13.6453777,10.590371 C11.9654949,10.594555 10.5736636,11.993043 10.5886924,13.6612096 C10.6037212,15.3419 11.9538059,16.689458 13.6345236,16.7011469 C15.3252605,16.7128357 16.6962185,15.3510841 16.6995643,13.6562001 L16.6995643,13.6553652 C16.702898,11.9679955 15.3260954,10.5862058 13.6453777,10.590371 Z" id="Shape"></path>
                </g>
            </g>
        </g>
    </g>
</svg>