<?xml version="1.0" encoding="UTF-8"?>
<svg width="46px" height="46px" viewBox="0 0 46 46" version="1.1" xmlns="http://www.w3.org/2000/svg" xmlns:xlink="http://www.w3.org/1999/xlink">
    <title>83EB9405-2270-413F-A5FE-5558D106C9A2</title>
    <g id="Page-1" stroke="none" stroke-width="1" fill="none" fill-rule="evenodd">
        <g id="D/-2.2-PLP-Filtered-products" transform="translate(-1270.000000, -2158.000000)">
            <g id="d/-newsletter" transform="translate(0.000000, 2091.000000)">
                <g id="Icons-/-Social-/-YouTube" transform="translate(1270.000000, 67.000000)">
                    <rect id="Path" fill="#FFFFFF" fill-rule="nonzero" x="0" y="0" width="46" height="46" rx="23"></rect>
                    <path d="M21,19 L21,28 L28,23.500779 L21,19 Z M34.7228716,13.6551088 C36.1023068,13.9826632 36.9650357,14.9668019 37.3095066,16.1147178 C37.9518982,18.2571007 37.9968967,22.3987459 38,22.9417189 L38,23.0597565 C37.9968967,23.6012541 37.9643116,27.7443748 37.481742,29.8867577 C37.1372711,31.1969753 36.1023068,32.0173368 34.8966587,32.3448912 C32.5986345,32.9690151 24.0628944,32.9985245 23.2374056,33 L23.1070653,33 C22.2645081,32.9985245 13.5798076,32.9690151 11.4478121,32.3448912 C10.068377,32.0173368 9.20719975,31.0331981 8.8611772,29.8867577 C8.02948174,27.6676503 8.00155167,23.3032091 8,23.0154924 L8,23.0007377 C8,23.0007377 8,18.4090741 8.69049343,16.1147178 C9.03496431,14.8030247 10.068377,13.9826632 11.2755767,13.6551088 C13.3532637,13.0486905 21.6515982,13.0029509 22.854143,13 L23.1443054,13 C24.3484018,13.0029509 32.6451846,13.0486905 34.7228716,13.6551088 L34.7228716,13.6551088 Z" id="Fill-1" fill="#291660"></path>
                </g>
            </g>
        </g>
    </g>
</svg>