<?xml version="1.0" encoding="UTF-8"?><svg version="1.1" width="48px" height="48px" viewBox="0 0 48.0 48.0" xmlns="http://www.w3.org/2000/svg" xmlns:xlink="http://www.w3.org/1999/xlink"><defs><clipPath id="i0"><path d="M1440,0 L1440,1269 L0,1269 L0,0 L1440,0 Z"></path></clipPath><clipPath id="i1"><path d="M48,0 L48,48 L0,48 L0,0 L48,0 Z"></path></clipPath><clipPath id="i2"><path d="M17.5810154,0 C18.7627876,0.208115233 19.9641209,0.343872071 21.1225595,0.638735923 C23.9537548,1.35933322 26.3797551,2.80215689 28.4307404,4.81597383 C30.7263797,7.06980885 32.2480966,9.7639033 32.8782447,12.8740925 C33.8498743,17.6687525 32.810619,22.0528838 29.7899601,25.9724552 C28.6417213,27.4623865 27.2458943,28.7048331 25.6279088,29.7026459 C25.3506995,29.8736995 25.2449296,30.078285 25.2062265,30.3807513 C25.059518,31.5273535 24.9186778,32.6758564 24.7206911,33.8145847 C24.4072937,35.6170283 23.0902703,36.8393828 21.2473316,36.8764444 C18.160584,36.9386211 15.070483,36.9386211 11.9837354,36.8764444 C10.1407967,36.8393828 8.82377324,35.6170283 8.51037586,33.8145847 C8.31238919,32.6758564 8.171549,31.5272178 8.02498018,30.3807513 C7.98627707,30.078285 7.87589637,29.8785867 7.60343765,29.7025101 C3.36076649,26.9606292 0.810832397,23.1288925 0.154416486,18.2320076 C-0.492079133,13.4096532 0.897041127,9.10643294 4.21628684,5.44004801 C6.61769601,2.78749515 9.6301113,1.11198426 13.1794798,0.364778624 C13.9919657,0.193725008 14.8259688,0.119058747 15.6501913,0 L17.5810154,0 Z M14.9181161,2.282604 C11.7596926,2.62263025 8.98243613,3.86557985 6.67784382,6.00290735 C3.08236205,9.33728711 1.52506706,13.4510947 2.16285157,18.2262099 C2.76304423,22.7187739 5.17048214,26.1670011 9.15507487,28.5415338 C9.7083132,28.8712228 9.98635093,29.2818179 10.0599742,29.905498 C10.2180018,31.243688 10.4053935,32.5798106 10.6289585,33.9090417 C10.7820211,34.81927 11.3196553,35.2220088 12.2465423,35.2239385 C13.6998569,35.2269707 15.1533133,35.2247654 16.6066278,35.2243519 L18.8604357,35.2324667 C19.6116341,35.2334832 20.3626197,35.2284179 21.1129669,35.204091 C21.4803739,35.1920998 21.9453778,35.0166424 22.1744752,34.7572466 C22.449534,34.4457511 22.5947945,33.9756135 22.6657225,33.5535785 C22.8782227,32.2869222 23.0314272,31.0107556 23.1985336,29.7370699 C23.2629362,29.2470848 23.5128864,28.9132609 23.9337731,28.624783 C24.8911592,27.9685751 25.9001808,27.3488921 26.7301801,26.5578866 C30.1616764,23.287322 31.6467667,19.2841918 31.0950888,14.6435986 C30.6573212,10.9592688 28.9153297,7.89007367 25.9888408,5.50878733 C22.7871512,2.90366531 19.0610201,1.83658661 14.9181161,2.282604 Z"></path></clipPath><clipPath id="i3"><path d="M6.26156206,0.00203422795 C7.81861521,0.001913545 9.37566837,-0.000258748233 10.9327215,0.00263764274 C12.0715794,0.00468925301 12.5409469,0.394133156 12.4737145,1.27029142 C12.2791025,3.80246123 9.49029418,5.78817861 6.16882222,5.75969743 C2.85191639,5.73133694 0.11979117,3.69263974 0.00170138717,1.15793559 C-0.0327808295,0.416218137 0.457370497,0.00903383947 1.42728125,0.00420652118 C3.0386557,-0.00375855399 4.65003015,0.00203422795 6.26156206,0.00203422795 Z M11.136,1.728 L1.536,1.728 C1.95619092,2.92967366 4.09868113,3.92471893 6.2855639,3.94312996 C8.46980949,3.96154099 10.6369134,2.97938344 11.136,1.728 Z"></path></clipPath><clipPath id="i4"><path d="M11.6523941,0 C12.1066077,-0.000686243923 12.514738,0.0709651638 12.7730647,0.451109288 C13.1239476,0.967183736 12.8326486,1.63243595 12.1764468,1.7820745 C11.9910747,1.82446633 11.7937598,1.84312796 11.6018971,1.84324315 C8.18043126,1.8468142 4.75909525,1.84796615 1.33762943,1.84163042 C1.08838959,1.84116964 0.824610767,1.81444435 0.593285044,1.73841553 C0.181390252,1.60294599 -0.0499354716,1.19250553 0.00912917711,0.798537979 C0.0663764521,0.416781122 0.381950433,0.105754111 0.808384215,0.0367521926 C0.997780529,0.00611027224 1.19457615,0.00265441656 1.38812646,0.00242402619 C3.07646673,-0.000110267977 4.76467718,0.000926488726 6.45301745,0.00104168392 C8.186143,0.0011568791 9.91926855,0.00276961175 11.6523941,0 Z"></path></clipPath><clipPath id="i5"><path d="M10.3901535,0.143667174 C10.7286356,0.363393956 10.8289148,0.69800587 10.6940749,1.18429485 C9.63396558,5.00809428 8.57119774,8.83117631 7.51406595,12.6557956 C7.41282971,13.0222802 7.23896285,13.3192803 6.83391155,13.4124387 C6.49532312,13.490327 6.20426893,13.3814884 5.98499464,13.119743 C5.76284915,12.8545131 5.78177777,12.557103 5.86770097,12.2478048 C6.69534977,9.26642801 7.52034005,6.28433384 8.34554301,3.30234215 C8.36393993,3.23603468 8.37606276,3.16818993 8.40296693,3.04859051 C8.30481457,3.09973028 8.24760333,3.12586383 8.19422035,3.157839 C7.75737322,3.41917449 7.45611033,3.41722728 7.04723077,3.11838246 C6.49223924,2.71285127 5.94713739,2.29491945 5.37406796,1.86438204 C4.90553133,2.21662129 4.43146499,2.54846612 3.98685499,2.9137209 C3.48163086,3.32888564 2.9789589,3.56183292 2.33559834,2.98228304 C2.38536573,3.20457193 2.40759092,3.32898812 2.44130088,3.45032978 C3.23715384,6.31794876 4.0353463,9.18505532 4.82896611,12.0531867 C4.8821364,12.2451402 4.92775651,12.4446775 4.93328622,12.6418577 C4.94338858,13.00701 4.66988059,13.324712 4.3041753,13.4160257 C3.94804067,13.5048798 3.54150061,13.3420319 3.37699172,13.0057802 C3.26863066,12.7846186 3.20663409,12.540603 3.14038391,12.3025315 C2.11270847,8.60448059 1.08747886,4.90581474 0.0623555881,1.2071489 C-0.0792900751,0.696161149 0.0195003311,0.355195195 0.367765757,0.136698227 C0.72102919,-0.0848732762 1.06589172,-0.0397800933 1.50901295,0.291654801 C2.03071987,0.681710833 2.55019365,1.07453395 3.10295202,1.49041607 C3.64784119,1.08037556 4.16657058,0.687347481 4.68849019,0.298213809 C5.2114732,-0.0917397382 5.53761978,-0.08928011 6.06868468,0.306515055 C6.5898599,0.695033819 7.10880197,1.08631967 7.64603462,1.48949371 C8.20017543,1.07289419 8.73793978,0.666338157 9.27825631,0.263164108 C9.68968804,-0.0437769891 10.0458227,-0.0797490509 10.3901535,0.143667174 Z"></path></clipPath></defs><g transform="translate(-601.0 -378.0)"><g clip-path="url(#i0)"><g transform="translate(601.0 378.0)"><g clip-path="url(#i1)"><g transform="translate(7.384615384615387 0.0)"><g clip-path="url(#i2)"><polygon points="-2.77555756e-17,0 33.2307692,0 33.2307692,36.9230769 -2.77555756e-17,36.9230769 -2.77555756e-17,0" stroke="none" fill="#291660"></polygon></g><g transform="translate(9.89538461538468 42.24000000000001)"><g clip-path="url(#i3)"><polygon points="2.16840434e-19,-8.67361738e-19 12.48,-8.67361738e-19 12.48,5.76 2.16840434e-19,5.76 2.16840434e-19,-8.67361738e-19" stroke="none" fill="#291660"></polygon></g></g><g transform="translate(9.895384615384948 38.76923076923074)"><g clip-path="url(#i4)"><polygon points="1.11022302e-15,-4.85771615e-06 12.9230769,-4.85771615e-06 12.9230769,1.84615385 1.11022302e-15,1.84615385 1.11022302e-15,-4.85771615e-06" stroke="none" fill="#291660"></polygon></g></g><g transform="translate(11.150769230769708 16.68923076923074)"><g clip-path="url(#i5)"><polygon points="-1.38777878e-16,-1.41553436e-15 10.752,-1.41553436e-15 10.752,13.44 -1.38777878e-16,13.44 -1.38777878e-16,-1.41553436e-15" stroke="none" fill="#291660"></polygon></g></g></g></g></g></g></g></svg>