<?xml version="1.0" encoding="UTF-8"?><svg version="1.1" width="48px" height="48px" viewBox="0 0 48.0 48.0" xmlns="http://www.w3.org/2000/svg" xmlns:xlink="http://www.w3.org/1999/xlink"><defs><clipPath id="i0"><path d="M1440,0 L1440,1269 L0,1269 L0,0 L1440,0 Z"></path></clipPath><clipPath id="i1"><path d="M48,0 L48,48 L0,48 L0,0 L48,0 Z"></path></clipPath><clipPath id="i2"><path d="M45,0 L45,44 L0,44 L0,0 L45,0 Z"></path></clipPath><clipPath id="i3"><path d="M34.68432,0.000118756569 C35.3197431,0.0149130509 35.9101667,0.275125011 36.3469716,0.733005403 L44.346785,9.1176988 C45.2467737,10.0620288 45.2126362,11.5646178 44.2699756,12.4672522 L42.7330122,13.9389554 L43.374642,14.6114914 C44.2754066,15.5558214 44.2172177,17.0815746 43.2450747,18.0120061 L41.6623359,19.5269493 C42.2333633,20.6542771 42.0448311,22.0657533 41.0858777,22.9830583 L40.9726032,23.0903861 C40.4225239,23.6169872 39.7033088,23.9042241 38.9398701,23.9042241 C38.9173704,23.9042241 38.8948707,23.9042241 38.8708192,23.903452 C38.0825533,23.8856927 37.3501487,23.5629372 36.8078279,22.9954126 L31.1658297,17.0815746 L17.2020393,30.4473581 L22.8510202,36.3681454 C23.9690234,37.5410295 23.9271274,39.4065254 22.7563662,40.5269039 C22.7563662,40.5269039 22.6438676,40.6342317 22.6438676,40.6342317 C22.0930125,41.1616049 21.3737973,41.4488418 20.6103586,41.4488418 L20.5405319,41.4480697 C20.0478657,41.4372597 19.5823543,41.2936412 19.1664975,41.0589099 L17.5891897,42.5684481 C17.1205748,43.0162907 16.5146342,43.2610598 15.8753318,43.2610598 L15.8186946,43.2610598 C15.1871508,43.2463891 14.6044857,42.9915821 14.1762152,42.5437396 L13.5423439,41.8789251 L12.0123631,43.3429069 C11.5677997,43.7675852 10.9874621,44 10.3722112,44 C10.3543666,44 10.3349703,44 10.3163499,43.9992279 C9.68015094,43.9845572 9.09050316,43.7243452 8.65292244,43.2664648 L0.653884857,34.8817714 C-0.246879705,33.9374414 -0.212742203,32.4348524 0.729918386,31.532218 L2.26688186,30.0605148 L1.62602783,29.3879788 C0.724487419,28.4436488 0.783452197,26.9178956 1.75559517,25.9874641 L3.33833394,24.4725209 C2.76653077,23.3451931 2.95583874,21.9337169 3.91401637,21.017184 L4.02729081,20.9083119 C4.59443887,20.3670402 5.32218836,20.0651325 6.12907479,20.0960182 C6.91811662,20.1137775 7.65052123,20.4357608 8.19206616,21.0040576 L13.8348402,26.9178956 L27.7986305,13.5521121 L22.1496497,7.6305527 C21.0308706,6.45844067 21.0735425,4.59294483 22.2443037,3.47256634 L22.3560264,3.36523855 C22.9247262,2.82165036 23.6765271,2.54522342 24.4593621,2.55062841 C24.9528042,2.56221055 25.4175397,2.70505687 25.8341724,2.94056028 L27.4114802,1.43102206 C27.8932845,0.970053094 28.5325869,0.724511838 29.1811994,0.7384104 C29.8135191,0.753081104 30.3961842,1.00711593 30.8236788,1.45573061 L31.458326,2.12054514 L32.987531,0.656563314 C33.4460597,0.219530764 34.0287248,-0.00593479155 34.68432,0.000118756569 Z M3.33600638,31.1808933 L1.80602558,32.6448751 C1.47551248,32.9614535 1.4638747,33.4880545 1.7796466,33.8185314 L9.77868418,42.2032248 C9.92919954,42.3607419 10.1324728,42.4503104 10.3520391,42.4557154 C10.6018635,42.4557154 10.7795337,42.3800454 10.9378076,42.2294777 L12.4739952,40.7585466 L3.33600638,31.1808933 Z M4.30737351,25.6871007 L2.83092651,27.1001212 C2.47713785,27.4383195 2.44067279,27.999667 2.75178957,28.3247389 L15.301977,41.4804996 C15.4424062,41.6279788 15.6386969,41.7121423 15.853608,41.7167752 C16.0964498,41.7152309 16.331533,41.628751 16.5130825,41.4557911 L17.9965121,40.0358214 L4.30737351,25.6871007 Z M6.06079979,21.6395307 C5.7008043,21.6395307 5.36175683,21.7746556 5.10262215,22.0225133 L4.98857186,22.1306132 C4.43150988,22.6641636 4.41133772,23.5536715 4.94512413,24.1127025 L19.6033023,39.4767903 C19.8585577,39.7439516 20.203812,39.8960636 20.5762211,39.9045572 C20.9470786,39.9107343 21.3008672,39.7771537 21.5685363,39.5215746 L21.680259,39.4142468 C22.2388727,38.8799243 22.258269,37.9904164 21.7252585,37.4313853 L7.06630442,22.0672976 C6.81182485,21.8001363 6.46657056,21.6480243 6.06079979,21.6395307 Z M28.8669792,14.6724906 L14.9753431,27.9687813 L16.2058449,29.2582589 L30.097481,15.9619683 L28.8669792,14.6724906 Z M24.3903112,4.0941409 C24.0303157,4.0941409 23.6912683,4.23003795 23.4321336,4.47789563 L23.319635,4.58522341 C22.7617972,5.11954589 22.741625,6.0082817 23.2754114,6.56808487 L37.9335896,21.9321726 C38.188845,22.1993339 38.5340993,22.3514459 38.9065084,22.3599395 C39.2727107,22.3699773 39.6311545,22.2317639 39.8980477,21.9769569 L40.0113222,21.868857 C40.56916,21.3353066 40.5885563,20.4457987 40.0555458,19.8867677 L25.3965917,4.52267988 C25.1421121,4.2547465 24.7968579,4.10340661 24.3903112,4.0941409 Z M29.1462861,2.28269503 C28.9057718,2.27420146 28.6691369,2.36994711 28.4875874,2.54367913 L27.0033819,3.96364885 L40.6932964,18.3123695 L42.1689675,16.899349 C42.5227562,16.5603786 42.5592212,15.9998032 42.2488803,15.6739592 L29.6979171,2.51897058 C29.5582636,2.37149139 29.361973,2.28732788 29.1462861,2.28269503 Z M34.6486308,1.5437047 C34.4011339,1.54143841 34.2203603,1.61942478 34.0628623,1.76999253 L32.5266747,3.2401515 L41.6646635,12.8185769 L43.1946443,11.3545951 C43.5243815,11.0380167 43.5367952,10.5114157 43.2210233,10.1809388 L35.2212098,1.79547323 C35.0714703,1.63872834 34.8674212,1.54915983 34.6486308,1.5437047 Z"></path></clipPath></defs><g transform="translate(-198.0 -378.0)"><g clip-path="url(#i0)"><g transform="translate(198.0 378.0)"><g clip-path="url(#i1)"><g transform="translate(2.0 2.0)"><g clip-path="url(#i2)"><g transform=""><g clip-path="url(#i3)"><polygon points="0,8.80313888e-13 45,8.80313888e-13 45,44 0,44 0,8.80313888e-13" stroke="none" fill="#291660"></polygon></g></g></g></g></g></g></g></g></svg>