<?xml version="1.0" encoding="UTF-8"?><svg version="1.1" width="48px" height="48px" viewBox="0 0 48.0 48.0" xmlns="http://www.w3.org/2000/svg" xmlns:xlink="http://www.w3.org/1999/xlink"><defs><clipPath id="i0"><path d="M1440,0 L1440,1269 L0,1269 L0,0 L1440,0 Z"></path></clipPath><clipPath id="i1"><path d="M48,0 L48,48 L0,48 L0,0 L48,0 Z"></path></clipPath><clipPath id="i2"><path d="M23.5,0 L47,9.37718166 L47,42.1041667 L35.4667767,42.1041667 L35.466,42.1 L11.428,42.1 L0,42.1041667 L0,9.37718166 L23.5,0 Z M35.466,35 L11.428,35 L11.428,40.6 L35.466,40.6 L35.466,35 Z M23.5,1.5 L1.5,10.4333333 L1.5,40.5 L10.0373134,40.5 L10.0373134,19.1666667 L36.9626866,19.1666667 L36.9626866,40.5 L45.5,40.5 L45.5,10.4333333 L23.5,1.5 Z M35.466,28 L11.428,28 L11.428,33.5 L35.466,33.5 L35.466,28 Z M35.4667767,20.5071292 L11.4281316,20.5071292 L11.428,26.5 L35.466,26.5 L35.4667767,20.5071292 Z"></path></clipPath></defs><g transform="translate(-466.0 -378.0)"><g clip-path="url(#i0)"><g transform="translate(466.0 378.0)"><g clip-path="url(#i1)"><g transform="translate(0.5 2.5)"><g clip-path="url(#i2)"><polygon points="0,0 47,0 47,42.1041667 0,42.1041667 0,0" stroke="none" fill="#291660"></polygon></g></g></g></g></g></g></svg>