<?xml version="1.0" encoding="UTF-8"?><svg version="1.1" width="48px" height="48px" viewBox="0 0 48.0 48.0" xmlns="http://www.w3.org/2000/svg" xmlns:xlink="http://www.w3.org/1999/xlink"><defs><clipPath id="i0"><path d="M1440,0 L1440,1269 L0,1269 L0,0 L1440,0 Z"></path></clipPath><clipPath id="i1"><path d="M48,0 L48,48 L0,48 L0,0 L48,0 Z"></path></clipPath></defs><g transform="translate(-131.0 -378.0)"><g clip-path="url(#i0)"><g transform="translate(131.0 378.0)"><g clip-path="url(#i1)"><g transform="translate(4.0 4.0)"><g transform="translate(17.0 17.0)"><path d="M7,3.5 C7,5.432875 5.432875,7 3.5,7 C1.567125,7 0,5.432875 0,3.5 C0,1.567125 1.567125,0 3.5,0 C5.432875,0 7,1.567125 7,3.5 Z" stroke="#291660" stroke-width="1.5" fill="none" stroke-linejoin="round"></path></g><g transform="translate(16.0 0.0)"><path d="M2.7,14 C1.35,11.5902052 0,7.18739533 0,4.8198293 C0,1.77752073 3.1221,0.745669547 5.4,0.229743954 C7.8264,-0.320148271 9,-0.0585134057 9,2.98379516 C9,5.3522792 7.6311,11.3221442 6.3,14" stroke="#291660" stroke-width="1.5" fill="none" stroke-linecap="round" stroke-linejoin="round"></path></g><g transform="translate(27.0 1.0)"><path d="M0,0 C3.14380974,1.26794185 5.89108691,3.35210406 8,6" stroke="#291660" stroke-width="1.5" fill="none" stroke-linecap="round" stroke-linejoin="round"></path></g><g transform="translate(27.0 5.0)"><path d="M0,0 C1.87562588,1.01442177 3.56499099,2.37278912 5,4" stroke="#291660" stroke-width="1.5" fill="none" stroke-linejoin="round"></path></g><g transform="translate(16.0 26.0)"><path d="M6.3,0 C7.65,2.40979481 9,6.81260467 9,9.1801707 C9,12.2224793 5.8779,13.2543305 3.6,13.770256 C1.1736,14.3201483 0,14.0585134 0,11.0162048 C0,8.6477208 1.3689,2.67785579 2.7,0" stroke="#291660" stroke-width="1.5" fill="none" stroke-linecap="round" stroke-linejoin="round"></path></g><g transform="translate(5.0 33.0)"><path d="M8,6 C4.85619026,4.73205815 2.10891309,2.64789594 0,0" stroke="#291660" stroke-width="1.5" fill="none" stroke-linecap="round" stroke-linejoin="round"></path></g><g transform="translate(8.0 31.0)"><path d="M5,4 C3.12437412,2.98557823 1.43500901,1.62721088 0,0" stroke="#291660" stroke-width="1.5" fill="none" stroke-linejoin="round"></path></g><g transform="translate(0.0 16.0)"><path d="M14,6.3 C11.5902052,7.65 7.18739533,9 4.8198293,9 C1.77752073,9 0.745669547,5.8779 0.229743954,3.6 C-0.320148271,1.1745 -0.0585134057,0 2.98379516,0 C5.3522792,0 11.3221442,1.3689 14,2.7" stroke="#291660" stroke-width="1.5" fill="none" stroke-linecap="round" stroke-linejoin="round"></path></g><g transform="translate(1.0 5.0)"><path d="M0,8 C1.26794185,4.85619026 3.35210406,2.10891309 6,0" stroke="#291660" stroke-width="1.5" fill="none" stroke-linecap="round" stroke-linejoin="round"></path></g><g transform="translate(5.0 8.0)"><path d="M0,5 C1.01442177,3.12437412 2.37278912,1.43400761 4,0" stroke="#291660" stroke-width="1.5" fill="none" stroke-linejoin="round"></path></g><g transform="translate(26.0 16.0)"><path d="M0,2.7 C2.40979481,1.35 6.81260467,0 9.1801707,0 C12.2224793,0 13.2543305,3.1221 13.770256,5.4 C14.3201483,7.8264 14.0585134,9 11.0162048,9 C8.6477208,9 2.67785579,7.6311 0,6.3" stroke="#291660" stroke-width="1.5" fill="none" stroke-linecap="round" stroke-linejoin="round"></path></g><g transform="translate(33.0 27.0)"><path d="M6,0 C4.73205815,3.14380974 2.64789594,5.89108691 0,8" stroke="#291660" stroke-width="1.5" fill="none" stroke-linecap="round" stroke-linejoin="round"></path></g><g transform="translate(31.0 27.0)"><path d="M4,0 C2.98557823,1.87562588 1.62721088,3.56499099 0,5" stroke="#291660" stroke-width="1.5" fill="none" stroke-linejoin="round"></path></g></g></g></g></g></g></svg>