<?xml version="1.0" encoding="utf-8"?>
<!-- Generator: Adobe Illustrator 27.0.0, SVG Export Plug-In . SVG Version: 6.00 Build 0)  -->
<svg version="1.1" id="Livello_1" xmlns="http://www.w3.org/2000/svg" xmlns:xlink="http://www.w3.org/1999/xlink" x="0px" y="0px"
	 viewBox="0 0 48 48" style="enable-background:new 0 0 48 48;" xml:space="preserve">
<style type="text/css">
	.st0{fill:#291660;}
	.st1{fill-rule:evenodd;clip-rule:evenodd;fill:#291660;}
</style>
<g>
	<g id="Page-1_71_">
		<g id="_x30_72---Rental-Car">
			<path id="Shape_215_" class="st0" d="M31.5,25.3h-15c-0.6,0-1.2,0.4-1.4,1s0,1.3,0.4,1.7l2.2,1.9c0.3,0.2,0.6,0.3,1,0.3h10.6
				c0.3,0,0.7-0.1,1-0.3l2.2-1.9c0.5-0.4,0.7-1.1,0.4-1.7C32.7,25.7,32.2,25.3,31.5,25.3L31.5,25.3z M31.6,26.9l-2.2,1.9
				c0,0,0,0-0.1,0H18.7c0,0,0,0-0.1,0l-2.2-1.9v-0.1l0.1-0.1h15.1c0,0,0.1,0,0.1,0.1C31.6,26.8,31.6,26.9,31.6,26.9L31.6,26.9z"/>
			<path id="Shape_214_" class="st0" d="M36.5,25.7l-2.3,1.9c-0.5,0.4-0.7,1.1-0.5,1.7s0.8,1,1.4,1h5.4c0.8,0,1.4-0.6,1.4-1.4v-2.1
				c0-0.8-0.6-1.4-1.4-1.4h-3.2C37.1,25.3,36.8,25.4,36.5,25.7L36.5,25.7z M40.7,26.7v2.1h-5.4c0,0-0.1,0-0.1-0.1v-0.1l2.3-1.9
				c0,0,0,0,0.1,0H40.7z"/>
			<path id="Shape_213_" class="st0" d="M11.5,25.7c-0.3-0.2-0.6-0.3-1-0.3H7.3c-0.8,0-1.4,0.6-1.4,1.4v2.1c0,0.8,0.6,1.4,1.4,1.4
				h5.4c0.6,0,1.2-0.4,1.4-1s0-1.3-0.5-1.7L11.5,25.7z M12.9,28.7C12.9,28.8,12.8,28.8,12.9,28.7l-5.5,0.1v-2.1h3.2c0,0,0,0,0.1,0
				l2.3,1.9C12.9,28.6,12.9,28.7,12.9,28.7z"/>
			<g>
				<path id="Path_174_" class="st1" d="M12.2,32.2H7.3c-0.4,0-0.7,0.3-0.7,0.7s0.3,0.7,0.7,0.7h4.9c0.4,0,0.7-0.3,0.7-0.7
					C12.9,32.6,12.6,32.2,12.2,32.2z"/>
				<path id="Path_173_" class="st1" d="M40.7,32.2h-4.9c-0.4,0-0.7,0.3-0.7,0.7s0.3,0.7,0.7,0.7h4.9c0.4,0,0.7-0.3,0.7-0.7
					C41.3,32.6,41,32.2,40.7,32.2z"/>
				<path id="Path_172_" class="st1" d="M30.2,32.2H17.8c-0.4,0-0.7,0.3-0.7,0.7s0.3,0.7,0.7,0.7h12.5c0.4,0,0.7-0.3,0.7-0.7
					C30.9,32.6,30.6,32.2,30.2,32.2z"/>
			</g>
			<path id="Shape_212_" class="st0" d="M44.8,19.1c0-1.1-0.9-2.1-2.1-2.1h-1.4c-0.6,0-1.2,0.3-1.6,0.7l-1.3-3.9
				c-0.5-1.4-1.8-2.4-3.3-2.4H12.8c-1.5,0-2.8,1-3.3,2.4l-1.3,3.9c-0.4-0.5-1-0.7-1.6-0.7H5.3c-1.1,0-2.1,0.9-2.1,2.1
				c0,1.1,0.9,2.1,2.1,2.1h1.1l-2.6,2.6c-0.4,0.4-0.6,0.9-0.6,1.5v9.1c0,0.9,0.6,1.7,1.4,2v2.2c0,1.1,0.9,2.1,2.1,2.1h4.9
				c1.1,0,2.1-0.9,2.1-2.1v-2.1h20.8v2.1c0,1.1,0.9,2.1,2.1,2.1h4.9c1.1,0,2.1-0.9,2.1-2.1v-2.2c0.8-0.3,1.4-1.1,1.4-2v-9.1
				c0-0.6-0.2-1.1-0.6-1.5l-2.6-2.6h1.1C43.9,21.1,44.8,20.2,44.8,19.1L44.8,19.1z M10.8,14.2c0.3-0.9,1.1-1.4,2-1.4h22.4
				c0.9,0,1.7,0.6,2,1.4l1.8,5.5H9L10.8,14.2z M5.3,19.8c-0.4,0-0.7-0.3-0.7-0.7c0-0.4,0.3-0.7,0.7-0.7h1.4c0.4,0,0.7,0.3,0.7,0.7
				v0.7H5.3z M12.2,38.5c0,0.4-0.3,0.7-0.7,0.7H6.7c-0.4,0-0.7-0.3-0.7-0.7v-2.1h6.2V38.5z M42,38.5c0,0.4-0.3,0.7-0.7,0.7h-4.9
				c-0.4,0-0.7-0.3-0.7-0.7v-2.1H42V38.5z M43.2,24.7c0.1,0.1,0.2,0.3,0.2,0.5v9.1c0,0.4-0.3,0.7-0.7,0.7H5.3
				c-0.4,0-0.7-0.3-0.7-0.7v-9.1c0-0.2,0.1-0.4,0.2-0.5l3.6-3.6h31.3L43.2,24.7z M40.7,19.8v-0.7c0-0.4,0.3-0.7,0.7-0.7h1.4
				c0.4,0,0.7,0.3,0.7,0.7c0,0.4-0.3,0.7-0.7,0.7H40.7z"/>
		</g>
	</g>
</g>
</svg>
