<?xml version="1.0" encoding="UTF-8"?><svg version="1.1" width="48px" height="48px" viewBox="0 0 48.0 48.0" xmlns="http://www.w3.org/2000/svg" xmlns:xlink="http://www.w3.org/1999/xlink"><defs><clipPath id="i0"><path d="M1440,0 L1440,1269 L0,1269 L0,0 L1440,0 Z"></path></clipPath><clipPath id="i1"><path d="M48,0 L48,48 L0,48 L0,0 L48,0 Z"></path></clipPath></defs><g transform="translate(-736.0 -378.0)"><g clip-path="url(#i0)"><g transform="translate(736.0 378.0)"><g clip-path="url(#i1)"><g transform="translate(0.99999999999973 0.9999999999982059)"><g transform="translate(21.10052130308031 14.053100000001002)"><path d="M4,2 C4,3.105 3.104,4 2,4 C0.895,4 0,3.105 0,2 C0,0.895 0.895,0 2,0 C3.104,0 4,0.895 4,2 Z" stroke="#291660" stroke-width="1.5" fill="none" stroke-miterlimit="10"></path></g><g transform="translate(12.642259481424842 21.78369999999995)"><path d="M4.89826182,0 C4.89826182,0 0.0612618217,3.659 0.000261821655,11.579 C-0.0157381783,13.669 0.701261822,15.753 2.24026182,17.167 C3.74426182,18.549 6.26426182,19.808 10.4582618,19.808 C14.6522618,19.808 17.1722618,18.549 18.6762618,17.167 C20.2152618,15.753 20.9322618,13.669 20.9162618,11.579 C20.8552618,3.659 16.0182618,0 16.0182618,0" stroke="#291660" stroke-width="1.5" fill="none" stroke-miterlimit="10"></path></g><g transform="translate(17.05043461347668 28.753499999998894)"><path d="M0.22678669,5.133 C0.0987866896,5.797 0.0157866896,6.527 0.000786689604,7.327 C-0.0242133104,8.603 0.54878669,10.413 1.41278669,11.245 C2.29478669,12.093 3.72978669,12.839 6.04978669,12.839 C8.36978669,12.839 9.80478669,12.093 10.6867867,11.245 C11.5517867,10.413 12.1247867,8.603 12.0997867,7.327 C12.0837867,6.527 12.0007867,5.797 11.8727867,5.133 C11.2887867,2.103 8.81778669,0 6.04978669,0 C3.28178669,0 0.81078669,2.103 0.22678669,5.133 Z" stroke="#291660" stroke-width="1.5" fill="none" stroke-miterlimit="10"></path></g><g transform="translate(27.715821303079785 31.56759999999849)"><path d="M5.843,3.193 L9.547,4.972 C9.547,4.972 10.815,0 13.966,0 C19.251,0 20.739,15.209 12.335,13.342 C11.422,13.139 0,9.384 0,9.384" stroke="#291660" stroke-width="1.5" fill="none" stroke-miterlimit="10"></path></g><g transform="translate(0.0 31.56759999999849)"><path d="M12.5997213,3.193 L8.8957213,4.972 C8.8957213,4.972 7.6277213,0 4.4767213,0 C-1.2262787,0 -2.2962787,15.209 6.1077213,13.342 C7.0207213,13.139 18.4427213,9.384 18.4427213,9.384" stroke="#291660" stroke-width="1.5" fill="none" stroke-miterlimit="10"></path></g><g transform="translate(7.290749850372777 19.88450000000012)"><path d="M7.28517145,0 C7.28517145,0 -0.0408285473,4.634 0.000171452708,13.299" stroke="#291660" stroke-width="1.5" fill="none" stroke-miterlimit="10"></path></g><g transform="translate(31.624821303080353 19.88450000000012)"><path d="M0,0 C0,0 7.326,4.634 7.285,13.299" stroke="#291660" stroke-width="1.5" fill="none" stroke-miterlimit="10"></path></g><g transform="translate(7.250721303080354 0.0)"><path d="M31.728,5 C31.728,2.238 29.489,0 26.728,0 C24.468,0 22.581,1.508 21.962,3.566 C18.298,1.169 13.43,1.164 9.761,3.551 C9.137,1.501 7.254,0 5,0 C2.238,0 0,2.238 0,5 C0,7.761 2.238,10 5,10 C5.038,10 5.073,9.99 5.112,9.988 C5.032,10.28 4.954,10.574 4.892,10.885 C3.133,19.677 10.44,22.924 15.85,22.924 C21.26,22.924 28.566,19.677 26.808,10.885 C26.746,10.573 26.668,10.278 26.587,9.986 C26.635,9.987 26.68,10 26.728,10 C29.489,10 31.728,7.761 31.728,5 Z" stroke="#291660" stroke-width="1.5" fill="none" stroke-miterlimit="10"></path></g><g transform="translate(18.46322130307999 9.057700000001205)"><path d="M0.5,2 L0.5,0" stroke="#291660" stroke-width="1.5" fill="none" stroke-miterlimit="10"></path></g><g transform="translate(26.73762130308023 9.057700000001205)"><path d="M0.5,2 L0.5,0" stroke="#291660" stroke-width="1.5" fill="none" stroke-miterlimit="10"></path></g></g></g></g></g></g></svg>