<?xml version="1.0" encoding="utf-8"?>
<!-- Generator: Adobe Illustrator 27.0.0, SVG Export Plug-In . SVG Version: 6.00 Build 0)  -->
<svg version="1.1" id="Livello_1" xmlns="http://www.w3.org/2000/svg" xmlns:xlink="http://www.w3.org/1999/xlink" x="0px" y="0px"
	 viewBox="0 0 48 48" style="enable-background:new 0 0 48 48;" xml:space="preserve">
<style type="text/css">
	.st0{fill:#291660;}
</style>
<g>
	<path class="st0" d="M26.3,22c-2-2-4.4-3.2-6.9-3.5c-0.4-0.1-0.8-0.1-1.2-0.1c-2.1,0-3.8,0.7-5.2,2c-0.7,0.7-1.6,1.2-2.6,1.3
		c-1.4,0.3-2.7,0.9-3.7,2c-2.5,2.6-2.6,6.8,0,9.4c0.6,0.6,1.3,1.1,2.1,1.5c2.2,1,4,2.8,5,5c0.3,0.8,0.8,1.5,1.5,2.1
		c1.3,1.2,2.9,1.9,4.7,1.9c1.8,0,3.5-0.7,4.7-1.9c1-1,1.7-2.3,1.9-3.8c0.1-1,0.6-1.9,1.3-2.5c1.6-1.6,2.3-3.9,2-6.4
		C29.5,26.4,28.2,24,26.3,22z M26.9,34.2c-0.9,0.9-1.5,2.1-1.7,3.4c-0.2,1.2-0.7,2.2-1.5,3c-1,1-2.3,1.5-3.7,1.5s-2.7-0.5-3.7-1.5
		c-0.5-0.5-0.9-1-1.1-1.6c-1.1-2.6-3.2-4.6-5.8-5.8c-0.6-0.3-1.2-0.6-1.6-1.1c-2-2-2-5.4,0-7.4c0.8-0.8,1.9-1.4,3-1.5
		c1.3-0.2,2.4-0.8,3.3-1.7c1.1-1.1,2.5-1.7,4.2-1.7c2.4,0,5,1.2,7,3.2c1.7,1.7,2.8,3.9,3.1,6C28.7,31.1,28.1,33,26.9,34.2z"/>
	<path class="st0" d="M27.6,16.2c0.2,0,0.4,0,0.6,0c1.4-0.2,2.8-0.9,3.9-2c1.1-1.1,1.8-2.5,2-3.9c0.2-1.5-0.3-2.8-1.2-3.7
		c-0.8-0.8-1.9-1.2-3.1-1.2c-0.2,0-0.4,0-0.6,0c-1.4,0.2-2.8,0.8-3.9,1.9s-1.8,2.5-2,3.9c-0.2,1.5,0.3,2.8,1.2,3.7
		C25.3,15.8,26.4,16.2,27.6,16.2z M24.7,11.5L24.7,11.5c0.1-1.1,0.7-2.2,1.5-3c0.9-0.9,1.9-1.4,3-1.5c0.2,0,0.3,0,0.5,0
		c0.9,0,1.6,0.3,2.1,0.8c0.6,0.6,0.9,1.5,0.8,2.6s-0.7,2.2-1.5,3c-0.9,0.9-2,1.4-3,1.5c-0.2,0-0.3,0-0.5,0c-0.8,0-1.6-0.3-2.1-0.8
		C24.9,13.4,24.6,12.5,24.7,11.5z"/>
	<path class="st0" d="M12.1,16.8c0.2,0,0.4,0,0.6,0c1.4-0.2,2.8-0.9,3.9-2s1.8-2.5,1.9-3.9c0.2-1.5-0.3-2.8-1.2-3.7
		C16.6,6.4,15.5,6,14.2,6c-0.2,0-0.4,0-0.6,0c-1.4,0.2-2.8,0.9-3.8,2c-1.1,1.1-1.8,2.5-2,3.9c-0.2,1.5,0.3,2.8,1.2,3.7
		C9.8,16.4,10.9,16.8,12.1,16.8z M9.2,12c0.1-1.1,0.7-2.2,1.5-3c0.9-0.9,1.9-1.4,3-1.5c1-0.1,1.9,0.2,2.6,0.8
		c0.6,0.6,0.9,1.5,0.8,2.6s-0.7,2.2-1.5,3c-0.9,0.9-1.9,1.4-3,1.5c-0.2,0-0.3,0-0.5,0c-0.8,0-1.6-0.3-2.1-0.8
		C9.4,14,9.1,13.1,9.2,12z"/>
	<path class="st0" d="M42,15.8c-0.8-0.8-1.9-1.2-3.1-1.2c-0.2,0-0.4,0-0.6,0c-1.4,0.2-2.8,0.9-3.9,2c-1.1,1.1-1.8,2.5-2,3.9
		c-0.2,1.5,0.3,2.8,1.2,3.7c0.8,0.8,1.9,1.2,3.1,1.2c0.2,0,0.4,0,0.6,0c1.4-0.2,2.8-0.8,3.9-1.9c1.1-1.1,1.8-2.5,2-3.9
		C43.4,18.1,43,16.8,42,15.8z M41.8,19.4L41.8,19.4c-0.1,1.1-0.7,2.2-1.5,3c-0.9,0.9-1.9,1.4-3,1.5c-0.2,0-0.3,0-0.5,0
		c-0.8,0-1.6-0.3-2.1-0.8c-0.6-0.6-0.9-1.5-0.8-2.6c0.1-1.1,0.7-2.2,1.5-3c0.9-0.9,2-1.4,3-1.5c0.2,0,0.3,0,0.5,0
		c0.8,0,1.6,0.3,2.1,0.8C41.6,17.5,41.9,18.4,41.8,19.4z"/>
	<path class="st0" d="M38.2,29.9c-0.2,0-0.4,0-0.6,0c-1.4,0.2-2.8,0.9-3.9,2c-1.1,1.1-1.8,2.5-2,3.9c-0.2,1.5,0.3,2.8,1.2,3.7
		c0.8,0.8,1.9,1.2,3.1,1.2c0.2,0,0.4,0,0.6,0c1.4-0.2,2.8-0.9,3.9-2c1.1-1.1,1.8-2.5,2-3.9c0.2-1.5-0.3-2.8-1.2-3.7
		C40.5,30.4,39.4,29.9,38.2,29.9z M41,34.7c-0.1,1.1-0.7,2.2-1.5,3c-0.9,0.9-2,1.4-3,1.5c-0.1,0-0.3,0-0.5,0c-0.9,0-1.6-0.3-2.1-0.8
		c-0.6-0.6-0.9-1.5-0.8-2.6c0.1-1.1,0.7-2.2,1.5-3c0.9-0.9,2-1.4,3-1.5c0.2,0,0.3,0,0.5,0c0.9,0,1.6,0.3,2.1,0.8
		C40.9,32.8,41.1,33.7,41,34.7z"/>
</g>
</svg>
