<?xml version="1.0" encoding="utf-8"?>
<!-- Generator: Adobe Illustrator 27.0.0, SVG Export Plug-In . SVG Version: 6.00 Build 0)  -->
<svg version="1.1" id="Livello_1" xmlns="http://www.w3.org/2000/svg" xmlns:xlink="http://www.w3.org/1999/xlink" x="0px" y="0px"
	 viewBox="0 0 48 48" style="enable-background:new 0 0 48 48;" xml:space="preserve">
<style type="text/css">
	.st0{fill:#291660;}
</style>
<g>
	<g>
		<g>
			<path class="st0" d="M40.4,18.9L40.4,18.9h-0.7v-4.6c0-1.8-1.5-3.3-3.3-3.3H11.7c-1.8,0-3.3,1.5-3.3,3.3v4.6H7.8
				c-1.8,0-3.3,1.5-3.3,3.3v10.5c0,1.8,1.5,3.3,3.3,3.3h0.7v4.6c0,0.4,0.3,0.7,0.7,0.7h1.3c0.3,0,0.5-0.2,0.6-0.4l1.8-4.8h22.6
				l1.8,4.8c0.1,0.3,0.3,0.4,0.6,0.4h1.3c0.4,0,0.7-0.3,0.7-0.7v-4.6h0.7c1.8,0,3.3-1.5,3.3-3.3V22.2C43.7,20.4,42.2,18.9,40.4,18.9
				z M9.7,14.3c0-1.1,0.9-2,2-2h24.8c1.1,0,2,0.9,2,2v4.6h-2c-0.4,0-0.7,0.3-0.7,0.7v7.2H12.3v-7.2c0-0.4-0.3-0.7-0.7-0.7h-2V14.3z
				 M5.8,22.2c0-1.1,0.9-2,2-2H11v6.5H5.8V22.2z M9.9,39.8H9.7v-3.9h1.7L9.9,39.8z M38.5,39.8h-0.2l-1.5-3.9h1.7V39.8z M42.4,32.6
				c0,1.1-0.9,2-2,2H7.8c-1.1,0-2-0.9-2-2v-4.6h36.6V32.6z M42.4,26.8h-5.2v-6.5h3.3c1.1,0,2,0.9,2,2V26.8z"/>
			<path class="st0" d="M7.8,33.3h27.4c0.4,0,0.7-0.3,0.7-0.7c0-0.4-0.3-0.7-0.7-0.7H7.8c-0.4,0-0.7,0.3-0.7,0.7
				C7.1,33,7.4,33.3,7.8,33.3z"/>
			<path class="st0" d="M37.8,33.3h2.6c0.4,0,0.7-0.3,0.7-0.7c0-0.4-0.3-0.7-0.7-0.7h-2.6c-0.4,0-0.7,0.3-0.7,0.7
				C37.2,33,37.5,33.3,37.8,33.3z"/>
		</g>
	</g>
</g>
</svg>
