<?xml version="1.0" encoding="UTF-8"?><svg version="1.1" width="48px" height="48px" viewBox="0 0 48.0 48.0" xmlns="http://www.w3.org/2000/svg" xmlns:xlink="http://www.w3.org/1999/xlink"><defs><clipPath id="i0"><path d="M1440,0 L1440,1269 L0,1269 L0,0 L1440,0 Z"></path></clipPath><clipPath id="i1"><path d="M48,0 L48,48 L0,48 L0,0 L48,0 Z"></path></clipPath></defs><g transform="translate(-265.0 -378.0)"><g clip-path="url(#i0)"><g transform="translate(265.0 378.0)"><g clip-path="url(#i1)"><g transform="translate(2.0 2.0)"><g transform="translate(7.0 25.0)"><polygon points="0,2 30,2 30,0 0,0 0,2 0,2" stroke="#291660" stroke-width="1.25" fill="none" stroke-linecap="round" stroke-linejoin="round"></polygon></g><g transform="translate(3.0 0.0)"><g transform="translate(0.7591315406307331 27.000000000000004)"><path d="M14.5032715,0 L0,17 L3.19368929,17 L17.5701937,0" stroke="#291660" stroke-width="1.25" fill="none" stroke-linecap="round" stroke-linejoin="round"></path></g><g transform="translate(19.67144515914971 27.000000000000004)"><path d="M3.06622187,0 L17.5694933,17 L14.375804,17 L0,0" stroke="#291660" stroke-width="1.25" fill="none" stroke-linecap="round" stroke-linejoin="round"></path></g><g transform="translate(18.64988480749071 0.0)"><path d="M0.35018523,44 L0.35018523,0" stroke="#291660" stroke-width="1.25" fill="none" stroke-linecap="round" stroke-linejoin="round"></path></g><g transform="translate(0.0 0.0002819880137394648)"><polygon points="38,11.0003525 0,11.0003525 19.0003502,0 38,11.0003525 38,11.0003525" stroke="#291660" stroke-width="1.25" fill="none" stroke-linecap="round" stroke-linejoin="round"></polygon></g></g><g transform="translate(35.0 35.0)"><path d="M4,0 L0,3" stroke="#291660" stroke-width="1.25" fill="none" stroke-linecap="round" stroke-linejoin="round"></path></g><g transform="translate(32.0 34.0)"><path d="M0,0.5 L12,0.5" stroke="#291660" stroke-width="1.25" fill="none" stroke-linecap="round" stroke-linejoin="round"></path></g><g transform="translate(5.0 35.0)"><path d="M0,0 L4,3" stroke="#291660" stroke-width="1.25" fill="none" stroke-linecap="round" stroke-linejoin="round"></path></g><g transform="translate(0.0 33.99972701749721)"><path d="M11.7498944,0.346477791 L0,0.346477791" stroke="#291660" stroke-width="1.25" fill="none" stroke-linecap="round" stroke-linejoin="round"></path></g><g transform="translate(17.60000000000036 43.5)"><path d="M0,0.5 L8,0.5" stroke="#291660" stroke-width="1.25" fill="none" stroke-linecap="round" stroke-linejoin="round"></path></g><g transform="translate(11.499999999999998 0.0)"><polygon points="21.0249954,11 0,11 10.5128444,0 21.0249954,11 21.0249954,11" stroke="#291660" stroke-width="1.25" fill="none" stroke-linecap="round" stroke-linejoin="round"></polygon></g></g></g></g></g></g></svg>