<?xml version="1.0" encoding="UTF-8"?><svg version="1.1" width="48px" height="48px" viewBox="0 0 48.0 48.0" xmlns="http://www.w3.org/2000/svg" xmlns:xlink="http://www.w3.org/1999/xlink"><defs><clipPath id="i0"><path d="M1440,0 L1440,1269 L0,1269 L0,0 L1440,0 Z"></path></clipPath><clipPath id="i1"><path d="M48,0 L48,48 L0,48 L0,0 L48,0 Z"></path></clipPath><clipPath id="i2"><path d="M39.5130452,1.96452987e-05 C39.8837486,-0.00184312515 40.1830839,0.128552539 40.3227395,0.482006929 C40.4598279,0.828787524 40.3530324,1.13000664 40.0864289,1.39516161 C38.6894879,2.78408078 37.298965,4.17928872 35.9070301,5.57308489 C35.7841897,5.69603671 35.6672538,5.82489227 35.5723958,5.92499918 C37.1053983,7.45650652 38.6196602,8.96914756 40.1824421,10.5301736 C40.5164346,10.187885 40.88855,9.79964987 41.2681103,9.41873025 C42.3759847,8.30703021 43.4895069,7.20097722 44.594429,6.08645365 C44.8834956,5.7948602 45.1846279,5.58014371 45.6127082,5.76431476 C46.0179405,5.93860345 46.081607,6.29167281 46.0799697,6.68106301 L46.0790477,7.83149559 C46.0728117,9.10848693 46.0167359,10.379105 45.5861377,11.6218523 C44.3627394,15.1530593 41.1543834,17.6305769 37.4287369,17.8803308 C36.6300815,17.9338495 35.8320679,17.9981489 35.0354663,18.0754109 C34.8895211,18.0895286 34.7175188,18.1554964 34.6158577,18.2563734 C33.1150736,19.7448861 31.6240449,21.2434095 30.1319892,22.7407778 C30.11158,22.7611843 30.1076009,22.7978901 30.0643436,22.9060826 C30.5839445,23.0206922 31.0872437,23.1554515 31.5988863,23.2392589 C32.4365631,23.3765851 33.1229036,23.7560929 33.7223444,24.3580178 C37.4402893,28.0912354 41.1710702,31.8117471 44.8956898,35.5385476 C46.4234295,37.0671031 46.4248414,38.8688991 44.9015943,40.3957861 C43.3859205,41.9151009 41.868963,43.433004 40.3489249,44.9478269 C38.8925533,46.3992487 37.0523856,46.3988637 35.595629,44.9437199 C31.9472551,41.2993151 28.3164666,37.6370707 24.6444746,34.0165376 C23.8168099,33.2004096 23.2922029,32.2971373 23.1515204,31.1507848 C23.107493,30.7925818 22.9929959,30.443106 22.8930036,30.012903 C22.72267,30.16255 22.6154894,30.2466141 22.5198613,30.342229 C21.1483356,31.7112552 19.7697501,33.0732225 18.4182486,34.4617566 C18.230073,34.6551683 18.106334,34.9721735 18.0739873,35.2463124 C17.9000596,36.7209642 17.927657,38.220386 17.4594001,39.6569201 C16.325982,43.1335817 13.0409951,46.0886606 8.48832571,46.0799809 L6.61465606,46.0790349 C6.23843315,46.0777515 5.91458109,45.9753344 5.75926559,45.5895378 C5.60407846,45.2043829 5.76658211,44.9145862 6.03626629,44.6463511 C7.54577887,43.1444908 9.05118393,41.6386519 10.537335,40.1546311 C9.00150865,38.620942 7.48467955,37.1062474 5.93499031,35.5588257 C5.84423986,35.6454566 5.71780534,35.7616063 5.59650522,35.8827613 C4.22549299,37.2524292 2.85165683,38.6188885 1.48808947,39.9957435 C1.19414527,40.292599 0.883642641,40.4879358 0.467884881,40.3109519 C0.0702258692,40.1416686 -0.00358108102,39.790011 0.00013005185,39.3942036 L0.00199523267,38.957669 L0.00129387345,38.0845951 C0.00520002066,37.0665011 0.0447079184,36.0512875 0.320014261,35.051104 C1.41505268,31.0737795 4.77795405,28.4129892 9.04412414,28.158615 C9.34769533,28.1405188 9.65498897,28.0653103 9.95291233,28.094829 C10.9994307,28.1985294 11.6930877,27.6774602 12.3801983,26.9552787 C13.1858493,26.1086694 14.0089251,25.2785842 14.8377451,24.4539856 L17.3297566,21.9856124 C17.4536239,21.8624039 17.6126618,21.7744895 17.7764491,21.6547462 C17.6076558,21.4659549 17.5199859,21.3577624 17.421919,21.259709 C14.1501531,17.9860848 10.8801843,14.7106637 7.59737955,11.4482053 C7.40817704,11.2600556 7.12617031,11.120291 6.86380265,11.0592001 C6.02330194,10.8630933 5.17304587,10.7072858 4.32381668,10.5508367 C3.91640232,10.4757565 3.64119866,10.275286 3.43749148,9.90283699 C2.37826547,7.9662817 1.29798844,6.04102052 0.227595123,4.1104973 C-0.0930479407,3.53244408 -0.061471402,3.30925702 0.407940802,2.8370861 C1.22084413,2.01928967 2.03592958,1.20354672 2.85422403,0.391269001 C3.30566585,-0.0570302666 3.53684205,-0.0943778436 4.08866132,0.21069154 C6.04846048,1.2941563 8.01300895,2.36966385 9.95278397,3.48816603 C10.217077,3.64050821 10.4468413,3.9939626 10.5265528,4.2978769 C10.7491289,5.14711717 10.8732529,6.02164085 11.0624554,6.88037843 C11.1112322,7.10202539 11.2091708,7.34934079 11.3644863,7.50553324 C14.6959395,10.8552644 18.0386884,14.1938297 21.3798969,17.5338069 C21.4356051,17.5895074 21.4994,17.6371223 21.6861637,17.7970367 C21.7801231,17.6448229 21.8486673,17.4688657 21.9707376,17.3461706 C23.7884423,15.5175511 25.5998574,13.6821294 27.4465715,11.883157 C27.8734966,11.4673283 28.0203403,11.0276279 28.071941,10.4580453 C28.1842559,9.21851644 28.2436866,7.951394 28.5586818,6.75729827 C29.6037882,2.79678665 33.2580666,0.0393547176 37.3510791,0.00252050928 C38.0716917,-0.00389660018 38.7924326,0.00457398431 39.5130452,1.96452987e-05 Z M18.7241303,22.6984249 C18.6276036,22.8117511 18.5218351,22.9543392 18.397711,23.0787028 C16.395168,25.0848196 14.3946788,27.0931182 12.3787863,29.0858873 C12.1877868,29.2746787 11.9087323,29.4492241 11.6514991,29.4824647 C10.8109983,29.5907855 9.96253932,29.6440475 9.11574897,29.6942293 C5.61883985,29.901887 2.82457289,32.0169663 1.88151261,35.2436172 C1.65855144,36.0064832 1.598479,36.8170925 1.46344437,37.6057552 C1.51786897,37.622183 1.57216522,37.6384825 1.62658982,37.654782 C1.73954654,37.5509531 1.8562257,37.4509746 1.96481819,37.3426537 C3.05292518,36.2564938 4.13897841,35.1684087 5.22708539,34.0823771 C5.81086628,33.4998319 6.14562893,33.49688 6.72119478,34.0715964 C8.46637617,35.8142266 10.2100172,37.558397 11.9537867,39.3023106 C12.6017475,39.9503104 12.6023893,40.2583316 11.9551986,40.9056896 C10.7786516,42.0824591 9.60094944,43.2579453 8.38936022,44.4680838 C8.49050783,44.5117201 8.51836193,44.5336666 8.54660111,44.5344367 C12.2708356,44.6250463 15.6606926,41.8259031 16.237157,38.132985 C16.4095443,37.0287288 16.4557539,35.9041945 16.5418834,34.7876174 C16.5778242,34.3230187 16.7124737,33.9451793 17.0658486,33.602634 C18.3647225,32.3429554 19.6330468,31.0517047 20.9115116,29.7709779 C21.0269071,29.6553416 21.132419,29.529823 21.3100691,29.3346145 C20.1382715,29.2419514 19.3131739,28.7240907 18.5967973,27.9580162 C17.7235648,27.0241984 17.7011018,26.0848619 18.6071944,25.1815896 C19.0577377,24.7325203 19.5240693,24.2992371 19.9092774,23.9298682 C19.4815821,23.4855476 19.1216609,23.1115584 18.7241303,22.6984249 Z M26.3084041,19.6531215 C24.0935538,21.8751098 21.8749811,24.0933762 19.6528143,26.308049 C19.4624565,26.4977388 19.4719551,26.6335248 19.6515307,26.82976 C20.1174772,27.3395352 20.628863,27.7357275 21.3526846,27.8078558 C21.7479048,27.8472569 22.1400443,27.9477488 22.525124,28.052091 C23.5736962,28.3359839 24.2335945,29.0190211 24.5004548,30.0677051 C24.6186742,30.5319188 24.654615,31.0200041 24.804026,31.4721537 C24.9253261,31.8392123 25.0906536,32.2377148 25.3552034,32.5045382 C29.1542718,36.3338841 32.9715672,40.1452621 36.7896329,43.9559984 C37.5063946,44.6712494 38.4181351,44.6907575 39.1352819,43.9838487 C40.7653245,42.3771328 42.3877938,40.762203 43.9825373,39.1205781 C44.2635172,38.8312948 44.3948294,38.3964715 44.4961054,38.2107603 C44.4855798,37.4593168 44.2474722,37.0650496 43.8920436,36.7103118 C40.504112,33.3299069 37.0937175,29.9711918 33.7534075,26.5441986 C32.7022681,25.4657392 31.6299494,24.6494829 30.0690929,24.4694188 C29.0064012,24.346852 28.3364908,23.5658898 28.054484,22.5166924 C27.9508976,22.1314091 27.8493649,21.7394521 27.8102151,21.3442865 C27.7385903,20.6196665 27.3390059,20.110148 26.8305723,19.6438808 C26.6318711,19.4617633 26.4952962,19.4656135 26.3084041,19.6531215 Z M3.73900892,1.7756962 L3.08580909,2.42858242 L1.77766944,3.73612314 C2.71264305,5.41727748 3.64838682,7.11100935 4.60210097,8.79460219 C4.68296772,8.93719036 4.87114335,9.07015287 5.03249176,9.10711542 C5.82691127,9.28936133 6.62608009,9.45684788 7.42999823,9.58993873 C7.86372637,9.66181036 8.19309791,9.84918996 8.50141842,10.158623 C12.5483498,14.2188565 16.604138,18.270106 20.6583858,22.3231524 C20.7886711,22.4534197 20.9247326,22.5781683 21.021516,22.6705747 C21.5913057,22.0973985 22.1188649,21.5667035 22.7530913,20.9287145 C22.6226776,20.8419552 22.4391229,20.7586611 22.3055002,20.6253135 C18.2592107,16.5871549 14.220366,12.5414241 10.1706107,8.50660231 C9.84817064,8.18536181 9.66012336,7.84140475 9.58708657,7.39156537 C9.45911174,6.60290262 9.28685273,5.82117035 9.11613405,5.04020812 C9.08507095,4.89787664 9.0067714,4.71357725 8.89330124,4.64940616 C7.16891416,3.67503226 5.43490009,2.71734284 3.73900892,1.7756962 Z M37.0756188,1.54647705 C33.7442939,1.70061602 30.7786665,4.0365722 30.0096622,7.27785419 C29.6910729,8.62095521 29.6542336,10.0332327 29.525617,11.4174032 C29.4874941,11.8284832 29.3528446,12.1367611 29.0624944,12.4248894 C27.0505812,14.4213805 25.0497068,16.4290373 23.0461369,18.433999 C22.925607,18.5546407 22.8125219,18.6825978 22.7737572,18.7240523 C23.1438188,19.1411645 23.4882085,19.5293996 23.8623776,19.951132 C24.3466796,19.458298 24.8095454,18.9718811 25.2892264,18.5027904 C26.0735055,17.7359458 27.0450617,17.7536571 27.8589919,18.4934214 C28.6672743,19.2283088 29.2541358,20.0717737 29.3275577,21.2109389 C29.3953317,21.2490566 29.4629774,21.2870459 29.530623,21.3250352 C29.6235556,21.1750031 29.6920998,21.0008428 29.8131432,20.878661 C31.0981543,19.5820199 32.3802131,18.2820418 33.6930783,17.0138927 C33.924768,16.7901922 34.2826354,16.6211656 34.6023799,16.578941 C35.5216936,16.457786 36.4507627,16.4076042 37.3767511,16.3417646 C40.6498005,16.1089519 43.4907905,13.7613166 44.2816159,10.5849757 C44.4509227,9.90489047 44.4899441,9.19246297 44.5889096,8.49492318 C44.5391059,8.48067719 44.4891739,8.46643121 44.4393703,8.45205688 C44.3149895,8.56666646 44.1863729,8.6769124 44.0668698,8.79627064 C42.9786345,9.8821739 41.8943783,10.9720558 40.8039608,12.0556489 C40.2986078,12.5578519 39.9139132,12.5547716 39.4067631,12.0485901 C37.6158856,10.2612967 35.8269335,8.47207827 34.0397784,6.68106301 C33.5099087,6.15011138 33.514658,5.79832544 34.0546682,5.25646471 C35.1511186,4.15605878 36.2510347,3.05924643 37.3481269,1.95961055 C37.4556925,1.85180311 37.5537594,1.7346267 37.7256334,1.54545031 C37.4446535,1.54545031 37.2598152,1.53800646 37.0756188,1.54647705 Z"></path></clipPath><clipPath id="i3"><path d="M0.231195462,0.0981205433 C0.402134942,-0.0381734584 0.740817664,-0.000905567297 0.999357708,0.0252411118 C1.11880226,0.0373088099 1.22889486,0.197383275 1.33259499,0.300905195 C3.96522871,2.92988871 6.59809918,5.5585173 9.22434042,8.1938896 C9.40202751,8.37218392 9.5281013,8.6017068 9.72094092,8.86601305 C9.54088624,9.10618391 9.43600233,9.3720282 9.24683246,9.46336411 C9.05470311,9.55600144 8.77260562,9.50855882 8.5434236,9.45934154 C8.41853361,9.432485 8.31708269,9.27950918 8.21290904,9.17551402 C5.58086722,6.54605726 2.94894378,3.91648218 0.32104523,1.28276624 C0.188342213,1.14990325 -0.000354137725,0.980363921 4.9914408e-07,0.828097966 C0.000474516261,0.576214346 0.0610846364,0.23370468 0.231195462,0.0981205433 Z"></path></clipPath><clipPath id="i4"><path d="M0.663944141,0 C0.913980335,0.150637232 1.12621763,0.229331798 1.27248293,0.373682777 C3.96066549,3.02729614 6.64250911,5.68719576 9.32083109,8.35070415 C9.67405123,8.7019194 9.68614218,9.09352964 9.39079426,9.39201021 C9.10401566,9.68175988 8.67801503,9.67302897 8.34040747,9.33904271 C5.64518164,6.67204196 2.95500349,3.99980266 0.26165586,1.3308229 C0.0176064475,1.0889186 -0.0880426487,0.793930386 0.0862783601,0.50534484 C0.206953106,0.30558171 0.451119906,0.179158191 0.663944141,0 Z"></path></clipPath></defs><g transform="translate(-533.0 -378.0)"><g clip-path="url(#i0)"><g transform="translate(533.0 378.0)"><g clip-path="url(#i1)"><g transform="translate(1.9199999999999982 1.9200000000000017)"><g clip-path="url(#i2)"><polygon points="-1.43274281e-13,2.88915451e-14 46.08,2.88915451e-14 46.08,46.08 -1.43274281e-13,46.08 -1.43274281e-13,2.88915451e-14" stroke="none" fill="#291660"></polygon></g><g transform="translate(27.319018556723314 31.807484159999976)"><g clip-path="url(#i3)"><polygon points="-3.20802189e-13,-2.32452946e-16 9.72094092,-2.32452946e-16 9.72094092,9.51620725 -3.20802189e-13,9.51620725 -3.20802189e-13,-2.32452946e-16" stroke="none" fill="#291660"></polygon></g></g><g transform="translate(30.719999999999995 26.880000000000003)"><g clip-path="url(#i4)"><polygon points="-8.8817842e-16,0 9.6,0 9.6,9.6 -8.8817842e-16,9.6 -8.8817842e-16,0" stroke="none" fill="#291660"></polygon></g></g></g></g></g></g></g></svg>