<?xml version="1.0" encoding="UTF-8"?><svg version="1.1" width="48px" height="48px" viewBox="0 0 48.0 48.0" xmlns="http://www.w3.org/2000/svg" xmlns:xlink="http://www.w3.org/1999/xlink"><defs><clipPath id="i0"><path d="M1440,0 L1440,1269 L0,1269 L0,0 L1440,0 Z"></path></clipPath><clipPath id="i1"><path d="M48,0 L48,48 L0,48 L0,0 L48,0 Z"></path></clipPath></defs><g transform="translate(-940.0 -378.0)"><g clip-path="url(#i0)"><g transform="translate(940.0 378.0)"><g clip-path="url(#i1)"><g transform="translate(10.0 3.0)"><g transform="translate(2.649999999999636 25.650000000001462)"><polygon points="17.0512821,0 20.4615385,13.4036239 20.4615385,17.2307692 0,17.2307692 0,13.4036239 3.41025641,0 17.0512821,0 17.0512821,0" stroke="#291660" stroke-width="1.3" fill="none" stroke-linecap="round" stroke-linejoin="round"></polygon></g><g transform="translate(9.11999999999961 31.230769230769234)"><path d="M7.53846154,3.76923077 C7.53846154,1.68767308 5.84890385,0 3.76923077,0 C1.68578846,0 0,1.68767308 0,3.76923077 C0,5.85255529 1.68578846,7.53846154 3.76923077,7.53846154 C5.84890385,7.53846154 7.53846154,5.85255529 7.53846154,3.76923077 Z" stroke="#291660" stroke-width="1.3" fill="none" stroke-linecap="round" stroke-linejoin="round"></path></g><g transform="translate(12.86923076923085 30.153846153847553)"><path d="M0.0538461538,0 L0.0538461538,4.30769231" stroke="#291660" stroke-width="1.3" fill="none" stroke-linecap="round" stroke-linejoin="round"></path></g><g transform="translate(4.307692307692378 4.307692307691468)"><path d="M15.5076923,20.4615385 L17.2307692,3.40883535 C17.2307692,1.52706956 15.6893692,0 13.7846154,0 L3.44281538,0 C1.5414,0 0,1.52706956 0,3.40883535 L1.72307692,20.4615385" stroke="#291660" stroke-width="1.3" fill="none" stroke-linecap="round" stroke-linejoin="round"></path></g><g transform="translate(0.0 7.538461538460979)"><path d="M20.7729479,15.0769231 L26.0108078,11.6740544 C27.2567507,10.8645429 27.9988334,9.54261101 27.9990667,8.1319952 L28,2.59606087 C28,1.90757047 27.7051968,1.24719938 27.1801042,0.760302779 C26.6550116,0.273514328 25.9427943,0 25.2001283,0 L22.3989734,0 L3.73316223,0 L0,0 L0,1.04744416 C0,2.66300645 0.970972163,4.14402868 2.51790126,4.88778432 L4.35473374,5.77083869" stroke="#291660" stroke-width="1.3" fill="none" stroke-linecap="round" stroke-linejoin="round"></path></g><g transform="translate(8.615384615384755 0.0)"><path d="M0,4.30769231 C0,1.92863462 1.68755529,0 3.76923077,0 C5.85090625,0 7.53846154,1.92863462 7.53846154,4.30769231" stroke="#291660" stroke-width="1.3" fill="none" stroke-linecap="round" stroke-linejoin="round"></path></g><g transform="translate(11.84615384615427 14.0)"><path d="M0,1.07692308 L2.15384615,1.07692308" stroke="#291660" stroke-width="1.3" fill="none" stroke-linecap="round" stroke-linejoin="round"></path></g><g transform="translate(11.84615384615427 18.37999999999997)"><path d="M0,0.5 L2.15384615,0.5" stroke="#291660" stroke-width="1.3" fill="none" stroke-linecap="round" stroke-linejoin="round"></path></g><g transform="translate(11.84615384615427 21.53846153846098)"><path d="M0,1.07692308 L2.15384615,1.07692308" stroke="#291660" stroke-width="1.3" fill="none" stroke-linecap="round" stroke-linejoin="round"></path></g><g transform="translate(5.461538461538112 11.34615384615245)"><path d="M14.9230769,0.5 L0,0.5" stroke="#291660" stroke-width="1.3" fill="none" stroke-linecap="round" stroke-linejoin="round"></path></g></g></g></g></g></g></svg>