<?xml version="1.0" encoding="UTF-8"?><svg version="1.1" width="48px" height="48px" viewBox="0 0 48.0 48.0" xmlns="http://www.w3.org/2000/svg" xmlns:xlink="http://www.w3.org/1999/xlink"><defs><clipPath id="i0"><path d="M1440,0 L1440,1269 L0,1269 L0,0 L1440,0 Z"></path></clipPath><clipPath id="i1"><path d="M48,0 L48,48 L0,48 L0,0 L48,0 Z"></path></clipPath></defs><g transform="translate(-64.0 -378.0)"><g clip-path="url(#i0)"><g transform="translate(64.0 378.0)"><g clip-path="url(#i1)"><g transform="translate(6.0 2.0)"><g transform="translate(4.374999999999998 25.94827586206896)"><polygon points="0,5.18965517 24.7916667,5.18965517 24.7916667,0 0,0 0,5.18965517 0,5.18965517" stroke="#291660" stroke-width="1.5" fill="none" stroke-linecap="round" stroke-linejoin="round"></polygon></g><g transform="translate(6.125083123753145 31.354045354639098)"><path d="M20.999685,0 L19.4780828,10.1266055 C19.3468348,11.0009479 18.6118458,11.6459546 17.7482338,11.6459546 L3.25145123,11.6459546 C2.38783918,11.6459546 1.65285021,11.0009479 1.52160218,10.1266055 L0,0" stroke="#291660" stroke-width="1.5" fill="none" stroke-linecap="round" stroke-linejoin="round"></path></g><g transform="translate(17.499896337896715 0.0)"><path d="M1.62784175,16.3652538 C-4.35706848,5.04449005 7.34588098,0 17.5001037,0 C13.4532894,4.13162637 15.0378906,20.4673174 1.62784175,16.3652538 Z" stroke="#291660" stroke-width="1.5" fill="none" stroke-linecap="round" stroke-linejoin="round"></path></g><g transform="translate(0.0 7.345367574300084)"><path d="M13.2263016,10.6009589 C16.4042539,1.77511701 9.35710964,-1.45260411 0,0.592604696 C3.62944556,2.78831507 0.706989395,14.7451271 13.2263016,10.6009589 Z" stroke="#291660" stroke-width="1.5" fill="none" stroke-linecap="round" stroke-linejoin="round"></path></g><g transform="translate(16.624925626115612 5.37460806883405)"><path d="M0,20.6043813 C1.5863512,5.49689059 11.3748294,0 11.3748294,0" stroke="#291660" stroke-width="1.5" fill="none" stroke-linecap="round" stroke-linejoin="round"></path></g><g transform="translate(7.875056874146889 12.54134938905613)"><path d="M0,0 C0,0 6.61052584,3.76253919 8.74986875,13.43764" stroke="#291660" stroke-width="1.5" fill="none" stroke-linecap="round" stroke-linejoin="round"></path></g></g></g></g></g></g></svg>