<?xml version="1.0" encoding="UTF-8"?><svg version="1.1" width="48px" height="48px" viewBox="0 0 48.0 48.0" xmlns="http://www.w3.org/2000/svg" xmlns:xlink="http://www.w3.org/1999/xlink"><defs><clipPath id="i0"><path d="M1440,0 L1440,1269 L0,1269 L0,0 L1440,0 Z"></path></clipPath><clipPath id="i1"><path d="M48,0 L48,48 L0,48 L0,0 L48,0 Z"></path></clipPath></defs><g transform="translate(-332.0 -378.0)"><g clip-path="url(#i0)"><g transform="translate(332.0 378.0)"><g clip-path="url(#i1)"><g transform="translate(1.3714285714285666 8.91428571428571)"><g transform="translate(0.0 7.912799999999999)"><path d="M0,0.342857143 L45.7042286,0.342857143" stroke="#291660" stroke-width="1.5" fill="none" stroke-linecap="round" stroke-linejoin="round"></path></g><g transform="translate(12.408891428571431 0.0)"><path d="M0,23.9163429 L0,4.30011429 C0,1.93508571 1.93508571,0 4.30011429,0 C6.66514286,0 8.60022857,1.93508571 8.60022857,4.30011429 L8.60022857,8.25531429" stroke="#291660" stroke-width="1.5" fill="none" stroke-linecap="round" stroke-linejoin="round"></path></g><g transform="translate(23.46637714285714 0.000617142857139541)"><path d="M0,24.0617143 L0,4.30011429 C0,1.9344 1.93508571,0 4.30011429,0 C6.66514286,0 8.60022857,1.9344 8.60022857,4.30011429 L8.60022857,8.25531429" stroke="#291660" stroke-width="1.5" fill="none" stroke-linecap="round" stroke-linejoin="round"></path></g><g transform="translate(12.408891428571431 12.94532571428571)"><path d="M0,0.342857143 L11.0578286,0.342857143" stroke="#291660" stroke-width="1.5" fill="none" stroke-linecap="round" stroke-linejoin="round"></path></g><g transform="translate(12.408891428571431 18.105462857142854)"><path d="M0,0.342857143 L11.0578286,0.342857143" stroke="#291660" stroke-width="1.5" fill="none" stroke-linecap="round" stroke-linejoin="round"></path></g><g transform="translate(0.0 21.27140571428571)"><path d="M0,0 C0.886628571,1.67794286 2.64548571,2.82377143 4.6752,2.82377143 C6.61371429,2.82377143 8.304,1.77805714 9.22491429,0.222857143 C10.1465143,1.77805714 11.8368,2.82377143 13.7753143,2.82377143 C15.7138286,2.82377143 17.4034286,1.77805714 18.3250286,0.222857143 C19.2459429,1.77805714 20.9362286,2.82377143 22.8747429,2.82377143 C24.8132571,2.82377143 26.5035429,1.77805714 27.4244571,0.222857143 C28.3460571,1.77805714 30.0356571,2.82377143 31.9741714,2.82377143 C33.9126857,2.82377143 35.6029714,1.77805714 36.5238857,0.222857143 C37.4454857,1.77805714 39.1357714,2.82377143 41.0742857,2.82377143 C43.0704,2.82377143 44.8038857,1.71634286 45.7042286,0.0836571429" stroke="#291660" stroke-width="1.5" fill="none" stroke-linecap="round" stroke-linejoin="round"></path></g><g transform="translate(6.27654857142857 27.25248)"><path d="M0,0.1392 C0.920914286,1.6944 2.6112,2.74011429 4.54971429,2.74011429 C6.48822857,2.74011429 8.17851429,1.6944 9.09942857,0.1392 C10.0210286,1.6944 11.7106286,2.74011429 13.6498286,2.74011429 C15.5876571,2.74011429 17.2779429,1.6944 18.1995429,0.1392 C19.1204571,1.6944 20.8107429,2.74011429 22.7492571,2.74011429 C24.6877714,2.74011429 26.3773714,1.6944 27.2989714,0.1392 C28.2198857,1.6944 29.9101714,2.74011429 31.8486857,2.74011429 C33.8448,2.74011429 35.5789714,1.632 36.4793143,0" stroke="#291660" stroke-width="1.5" fill="none" stroke-linecap="round" stroke-linejoin="round"></path></g></g></g></g></g></g></svg>