<?xml version="1.0" encoding="utf-8"?>
<!-- Generator: Adobe Illustrator 27.0.0, SVG Export Plug-In . SVG Version: 6.00 Build 0)  -->
<svg version="1.1" id="Livello_1" xmlns="http://www.w3.org/2000/svg" xmlns:xlink="http://www.w3.org/1999/xlink" x="0px" y="0px"
	 viewBox="0 0 48 48" style="enable-background:new 0 0 48 48;" xml:space="preserve">
<style type="text/css">
	.st0{clip-path:url(#SVGID_00000121240396200777454480000010503563764951173529_);}
	.st1{clip-path:url(#SVGID_00000182509016686967800590000000324267699285821868_);}
	.st2{fill:#291660;}
</style>
<g transform="translate(-668.0 -378.0)">
	<g>
		<g>
			<defs>
				<rect id="SVGID_1_" y="0" width="1440" height="1269"/>
			</defs>
			<clipPath id="SVGID_00000114787194928597856120000016880158771717463473_">
				<use xlink:href="#SVGID_1_"  style="overflow:visible;"/>
			</clipPath>
			<g style="clip-path:url(#SVGID_00000114787194928597856120000016880158771717463473_);">
				<g transform="translate(668.0 378.0)">
					<g>
						<g>
							<g transform="translate(7.68 1.9199999999999982)">
								<g>
									<g>
										<defs>
											<path id="SVGID_00000002375472962732193450000003692444006066595006_" d="M15.6,0.3c2.1,1.7,4,3.5,5.6,5.7
												c2.1,2.8,3.6,5.9,4.2,9.4c0.4,2.1,0.3,4.2-0.1,6.3v0.1V22c0,0.1,0,0.1,0,0.2c0.2-0.2,0.3-0.3,0.4-0.4
												c1.4-1.4,2.1-3.1,1.9-5.1c0-0.4,0-0.7,0.4-0.8c0.4-0.1,0.6,0,0.8,0.3c1.7,2.8,3.1,5.7,3.6,8.9c1.2,7-2.4,14.1-7.9,17.2
												c-2.9,1.6-6.1,2.3-9.4,1.6c-5.1-1-9.5-3.4-12.6-7.8c-1.6-2.3-2.4-4.9-2.5-7.7C-0.2,25.1,0.5,22,1.7,19
												c0.1-0.3,0.3-0.6,0.7-0.6s0.6,0.3,0.7,0.7c0.4,1.2,1.1,2.2,2,3c0.1,0.1,0.3,0.3,0.5,0.4c0.4-2.1,1.2-4,2.3-5.7
												c1.5-2.3,3.3-4.3,5.5-5.9c1.6-1.1,2.3-2.7,2.3-4.6c0.1-1.9-0.5-3.6-1.2-5.3c-0.1-0.2-0.1-0.5-0.1-0.7
												C14.7-0.1,15.2-0.1,15.6,0.3z M18.7,21.1c-1.4,1.3-2.3,2.7-2.9,4.5c-0.7,2.2-0.8,4.3-0.3,6.6c0.1,0.3,0.1,0.7-0.2,0.8
												c-0.2,0.1-0.6,0.1-0.8,0c-0.7-0.3-1.3-0.8-1.8-1.5c-0.2-0.3-0.4-0.6-0.6-1c-0.5,0.8-1,2.7-1,4c-0.1,3.2,1.2,5.8,3.6,7.9
												c0.2,0.2,0.5,0.3,0.7,0.3c1.5,0.2,2.9,0.2,4.4-0.1c1.7-0.3,3.1-0.8,4-2.5c1.2-2,1.8-4.1,1.3-6.4c-0.4-1.8-1.2-3.5-2.5-5
												c-0.7-0.8-1.4-1.7-2-2.5C19.6,24.7,18.6,23.2,18.7,21.1z M16.7,2.9c0.1,1,0.3,1.9,0.4,2.9c0.1,2.5-0.8,4.6-2.8,6.2
												c-3.9,3-6.7,6.7-7.5,11.7c-0.1,0.7-0.6,0.8-1.2,0.4c-1.1-0.8-2.1-1.8-2.8-3c-0.1-0.1-0.2-0.2-0.3-0.4
												c-0.6,1.8-1,3.5-1.1,5.4c-0.3,3.5,0.4,6.8,2.5,9.7c1.7,2.3,3.9,3.9,6.5,5.2c0.6,0.3,1.3,0.6,1.9,0.9
												c-0.5-1-1.1-1.8-1.5-2.8C9.3,35.3,10,31.8,12,28.3c0.2-0.3,0.4-0.4,0.7-0.3s0.5,0.3,0.5,0.6c0,0.9,0.3,1.7,0.9,2.4
												c0.1-1.1,0-2.3,0.2-3.4c0.5-3.7,2.4-6.5,5.4-8.7c0.3-0.2,0.6-0.3,0.9,0c0.3,0.2,0.3,0.5,0.1,0.9c-0.7,1.5-0.6,3,0.3,4.5
												c0.6,0.9,1.2,1.8,1.9,2.6c1.2,1.5,2.4,3,3.1,4.8c0.7,1.9,1,3.7,0.6,5.7c-0.2,1-0.7,2-1,3c3-2.4,4.9-5.5,5.6-9.3
												c0.9-4.3-0.2-8.3-2.3-12.2c0,0.1-0.1,0.1-0.1,0.2c-0.6,2.4-2.1,4-4.2,5.2c-0.3,0.2-0.6,0.2-0.8,0
												c-0.3-0.2-0.3-0.5-0.1-0.8c0.1-0.3,0.2-0.5,0.3-0.8c1.1-3.6,0.8-7.2-0.6-10.7S19.7,5.6,17,3.1
												C16.8,2.9,16.7,2.9,16.7,2.9z"/>
										</defs>
										<clipPath id="SVGID_00000045586846050704204400000001000625545363659441_">
											<use xlink:href="#SVGID_00000002375472962732193450000003692444006066595006_"  style="overflow:visible;"/>
										</clipPath>
										<g style="clip-path:url(#SVGID_00000045586846050704204400000001000625545363659441_);">
											<polygon class="st2" points="0,0 32.6,0 32.6,44.2 0,44.2 											"/>
										</g>
									</g>
								</g>
							</g>
						</g>
					</g>
				</g>
			</g>
		</g>
	</g>
</g>
</svg>
