<?xml version="1.0" encoding="UTF-8"?><svg version="1.1" width="48px" height="48px" viewBox="0 0 48.0 48.0" xmlns="http://www.w3.org/2000/svg" xmlns:xlink="http://www.w3.org/1999/xlink"><defs><clipPath id="i0"><path d="M1440,0 L1440,1269 L0,1269 L0,0 L1440,0 Z"></path></clipPath><clipPath id="i1"><path d="M48,0 L48,48 L0,48 L0,0 L48,0 Z"></path></clipPath></defs><g transform="translate(-872.0 -378.0)"><g clip-path="url(#i0)"><g transform="translate(872.0 378.0)"><g clip-path="url(#i1)"><g transform="translate(2.0 4.0)"><g transform="translate(10.0 0.0)"><path d="M0,16 L0,4.33003501 C3.38709368,1.67047729 7.48379844,0 12.0000766,0 C16.5163549,0 20.6129063,1.67047729 24,4.33003501 L24,16" stroke="#291660" stroke-width="1.5" fill="none" stroke-linecap="round" stroke-linejoin="round"></path></g><g transform="translate(2.0 6.0)"><path d="M7.6190403,0 C3.10641435,4.31025461 0,10.677845 0,16.9631172 C0,19.7449149 8.95428852,22 20,22 C31.0457115,22 40,19.7449149 40,16.9631172 C40,10.677845 36.8935856,4.31025461 32.3809597,0" stroke="#291660" stroke-width="1.5" fill="none" stroke-linecap="round" stroke-linejoin="round"></path></g><g transform="translate(0.0 23.0)"><path d="M2.24253209,0 L0,2.999952 L0,5.80452543 L11.4433018,16 L32.5568499,16 L44,5.80452543 L44,2.999952 L41.7576196,0" stroke="#291660" stroke-width="1.5" fill="none" stroke-linecap="round" stroke-linejoin="round"></path></g><g transform="translate(15.94999999999982 2.0)"><path d="M0.05,0 L0.05,22" stroke="#291660" stroke-width="1.5" fill="none" stroke-linecap="round" stroke-linejoin="round"></path></g><g transform="translate(29.94999999999982 2.0)"><path d="M0.05,0 L0.05,22" stroke="#291660" stroke-width="1.5" fill="none" stroke-linecap="round" stroke-linejoin="round"></path></g></g></g></g></g></g></svg>