<?xml version="1.0" encoding="utf-8"?>
<!-- Generator: Adobe Illustrator 27.3.1, SVG Export Plug-In . SVG Version: 6.00 Build 0)  -->
<svg version="1.1" id="Livello_1" xmlns="http://www.w3.org/2000/svg" xmlns:xlink="http://www.w3.org/1999/xlink" x="0px" y="0px"
	 viewBox="0 0 40 40" style="enable-background:new 0 0 40 40;" xml:space="preserve">
<style type="text/css">
	.st0{fill:#6B4DC4;}
</style>
<path class="st0" d="M15.1,11.5c-2.8,0-5.1,2.3-5.1,5.2c0,6.3,8.5,11,10,11.8c1.5-0.8,10-5.5,10-11.8c0-2.9-2.3-5.2-5.1-5.2
	c-1.8,0-3.5,1-4.4,2.7c-0.2,0.4-0.8,0.4-1,0C18.6,12.5,16.9,11.5,15.1,11.5 M19.8,29.4C19.3,29.2,9,24.2,9,16.8
	c0-3.4,2.7-6.3,6.1-6.3c1.9,0,3.7,0.9,4.9,2.4c1.2-1.5,3-2.4,4.9-2.4c3.4,0,6.1,2.8,6.1,6.3c0,7.4-10.3,12.5-10.8,12.7
	C20.1,29.5,19.9,29.5,19.8,29.4z"/>
</svg>
