<?xml version="1.0" encoding="UTF-8"?>
<svg width="240px" height="30px" viewBox="0 0 240 30" version="1.1" xmlns="http://www.w3.org/2000/svg" xmlns:xlink="http://www.w3.org/1999/xlink">
    <title>EED5980A-D665-4027-A300-A6BED86674FB</title>
    <defs>
        <linearGradient x1="49.9971223%" y1="-1.81495761%" x2="49.9971223%" y2="99.7082845%" id="linearGradient-1">
            <stop stop-color="#EB0297" offset="0%"></stop>
            <stop stop-color="#EB0297" offset="12%"></stop>
            <stop stop-color="#EB0297" offset="16%"></stop>
            <stop stop-color="#EB0297" offset="17%"></stop>
            <stop stop-color="#EB0297" offset="18%"></stop>
            <stop stop-color="#EA0297" offset="18%"></stop>
            <stop stop-color="#E90297" offset="18%"></stop>
            <stop stop-color="#E80397" offset="19%"></stop>
            <stop stop-color="#E80397" offset="19%"></stop>
            <stop stop-color="#E70397" offset="20%"></stop>
            <stop stop-color="#E60397" offset="20%"></stop>
            <stop stop-color="#E50398" offset="20%"></stop>
            <stop stop-color="#E40398" offset="21%"></stop>
            <stop stop-color="#E30398" offset="21%"></stop>
            <stop stop-color="#E30498" offset="21%"></stop>
            <stop stop-color="#E20498" offset="22%"></stop>
            <stop stop-color="#E10498" offset="22%"></stop>
            <stop stop-color="#E00498" offset="23%"></stop>
            <stop stop-color="#DF0498" offset="23%"></stop>
            <stop stop-color="#DF0498" offset="23%"></stop>
            <stop stop-color="#DE0498" offset="24%"></stop>
            <stop stop-color="#DD0598" offset="24%"></stop>
            <stop stop-color="#DC0598" offset="25%"></stop>
            <stop stop-color="#DB0599" offset="25%"></stop>
            <stop stop-color="#DB0599" offset="25%"></stop>
            <stop stop-color="#DA0599" offset="26%"></stop>
            <stop stop-color="#D90599" offset="26%"></stop>
            <stop stop-color="#D80599" offset="27%"></stop>
            <stop stop-color="#D70699" offset="27%"></stop>
            <stop stop-color="#D60699" offset="27%"></stop>
            <stop stop-color="#D60699" offset="28%"></stop>
            <stop stop-color="#D50699" offset="28%"></stop>
            <stop stop-color="#D40699" offset="29%"></stop>
            <stop stop-color="#D30699" offset="29%"></stop>
            <stop stop-color="#D20699" offset="29%"></stop>
            <stop stop-color="#D2079A" offset="30%"></stop>
            <stop stop-color="#D1079A" offset="30%"></stop>
            <stop stop-color="#D0079A" offset="30%"></stop>
            <stop stop-color="#CF079A" offset="31%"></stop>
            <stop stop-color="#CE079A" offset="31%"></stop>
            <stop stop-color="#CE079A" offset="32%"></stop>
            <stop stop-color="#CD079A" offset="32%"></stop>
            <stop stop-color="#CC089A" offset="32%"></stop>
            <stop stop-color="#CB089A" offset="33%"></stop>
            <stop stop-color="#CA089A" offset="33%"></stop>
            <stop stop-color="#CA089A" offset="34%"></stop>
            <stop stop-color="#C9089A" offset="34%"></stop>
            <stop stop-color="#C8089B" offset="34%"></stop>
            <stop stop-color="#C7089B" offset="35%"></stop>
            <stop stop-color="#C6099B" offset="35%"></stop>
            <stop stop-color="#C5099B" offset="36%"></stop>
            <stop stop-color="#C5099B" offset="36%"></stop>
            <stop stop-color="#C4099B" offset="36%"></stop>
            <stop stop-color="#C3099B" offset="37%"></stop>
            <stop stop-color="#C2099B" offset="37%"></stop>
            <stop stop-color="#C1099B" offset="38%"></stop>
            <stop stop-color="#C10A9B" offset="38%"></stop>
            <stop stop-color="#C00A9B" offset="38%"></stop>
            <stop stop-color="#BF0A9B" offset="39%"></stop>
            <stop stop-color="#BE0A9C" offset="39%"></stop>
            <stop stop-color="#BD0A9C" offset="39%"></stop>
            <stop stop-color="#BD0A9C" offset="40%"></stop>
            <stop stop-color="#BC0A9C" offset="40%"></stop>
            <stop stop-color="#BB0B9C" offset="41%"></stop>
            <stop stop-color="#BA0B9C" offset="41%"></stop>
            <stop stop-color="#B90B9C" offset="41%"></stop>
            <stop stop-color="#B80B9C" offset="42%"></stop>
            <stop stop-color="#B80B9C" offset="42%"></stop>
            <stop stop-color="#B70B9C" offset="43%"></stop>
            <stop stop-color="#B60B9C" offset="43%"></stop>
            <stop stop-color="#B50C9C" offset="43%"></stop>
            <stop stop-color="#B40C9C" offset="44%"></stop>
            <stop stop-color="#B40C9D" offset="44%"></stop>
            <stop stop-color="#B30C9D" offset="45%"></stop>
            <stop stop-color="#B20C9D" offset="45%"></stop>
            <stop stop-color="#B10C9D" offset="45%"></stop>
            <stop stop-color="#B00C9D" offset="46%"></stop>
            <stop stop-color="#B00D9D" offset="46%"></stop>
            <stop stop-color="#AF0D9D" offset="46%"></stop>
            <stop stop-color="#AE0D9D" offset="47%"></stop>
            <stop stop-color="#AD0D9D" offset="47%"></stop>
            <stop stop-color="#AC0D9D" offset="48%"></stop>
            <stop stop-color="#AB0D9D" offset="48%"></stop>
            <stop stop-color="#AB0D9D" offset="48%"></stop>
            <stop stop-color="#AA0E9E" offset="49%"></stop>
            <stop stop-color="#A90E9E" offset="49%"></stop>
            <stop stop-color="#A80E9E" offset="50%"></stop>
            <stop stop-color="#A70E9E" offset="50%"></stop>
            <stop stop-color="#A70E9E" offset="50%"></stop>
            <stop stop-color="#A60E9E" offset="51%"></stop>
            <stop stop-color="#A50E9E" offset="51%"></stop>
            <stop stop-color="#A40F9E" offset="52%"></stop>
            <stop stop-color="#A30F9E" offset="52%"></stop>
            <stop stop-color="#A30F9E" offset="52%"></stop>
            <stop stop-color="#A20F9E" offset="53%"></stop>
            <stop stop-color="#A10F9E" offset="53%"></stop>
            <stop stop-color="#A00F9F" offset="54%"></stop>
            <stop stop-color="#9F0F9F" offset="54%"></stop>
            <stop stop-color="#9E109F" offset="54%"></stop>
            <stop stop-color="#9E109F" offset="55%"></stop>
            <stop stop-color="#9D109F" offset="55%"></stop>
            <stop stop-color="#9C109F" offset="55%"></stop>
            <stop stop-color="#9B109F" offset="56%"></stop>
            <stop stop-color="#9A109F" offset="56%"></stop>
            <stop stop-color="#9A109F" offset="57%"></stop>
            <stop stop-color="#99119F" offset="57%"></stop>
            <stop stop-color="#98119F" offset="57%"></stop>
            <stop stop-color="#97119F" offset="58%"></stop>
            <stop stop-color="#9611A0" offset="58%"></stop>
            <stop stop-color="#9611A0" offset="59%"></stop>
            <stop stop-color="#9511A0" offset="59%"></stop>
            <stop stop-color="#9411A0" offset="59%"></stop>
            <stop stop-color="#9312A0" offset="60%"></stop>
            <stop stop-color="#9212A0" offset="60%"></stop>
            <stop stop-color="#9212A0" offset="61%"></stop>
            <stop stop-color="#9112A0" offset="61%"></stop>
            <stop stop-color="#9012A0" offset="61%"></stop>
            <stop stop-color="#8F12A0" offset="62%"></stop>
            <stop stop-color="#8E12A0" offset="62%"></stop>
            <stop stop-color="#8D13A0" offset="62%"></stop>
            <stop stop-color="#8D13A1" offset="63%"></stop>
            <stop stop-color="#8C13A1" offset="63%"></stop>
            <stop stop-color="#8B13A1" offset="64%"></stop>
            <stop stop-color="#8A13A1" offset="64%"></stop>
            <stop stop-color="#8913A1" offset="64%"></stop>
            <stop stop-color="#8913A1" offset="65%"></stop>
            <stop stop-color="#8814A1" offset="65%"></stop>
            <stop stop-color="#8714A1" offset="66%"></stop>
            <stop stop-color="#8614A1" offset="66%"></stop>
            <stop stop-color="#8514A1" offset="66%"></stop>
            <stop stop-color="#8514A1" offset="67%"></stop>
            <stop stop-color="#8414A1" offset="67%"></stop>
            <stop stop-color="#8314A1" offset="68%"></stop>
            <stop stop-color="#8215A2" offset="68%"></stop>
            <stop stop-color="#8115A2" offset="68%"></stop>
            <stop stop-color="#8015A2" offset="69%"></stop>
            <stop stop-color="#8015A2" offset="69%"></stop>
            <stop stop-color="#7F15A2" offset="70%"></stop>
            <stop stop-color="#7E15A2" offset="70%"></stop>
            <stop stop-color="#7D15A2" offset="70%"></stop>
            <stop stop-color="#7C16A2" offset="71%"></stop>
            <stop stop-color="#7C16A2" offset="71%"></stop>
            <stop stop-color="#7B16A2" offset="71%"></stop>
            <stop stop-color="#7A16A2" offset="72%"></stop>
            <stop stop-color="#7916A2" offset="72%"></stop>
            <stop stop-color="#7816A3" offset="73%"></stop>
            <stop stop-color="#7816A3" offset="73%"></stop>
            <stop stop-color="#7717A3" offset="73%"></stop>
            <stop stop-color="#7617A3" offset="74%"></stop>
            <stop stop-color="#7517A3" offset="74%"></stop>
            <stop stop-color="#7417A3" offset="75%"></stop>
            <stop stop-color="#7317A3" offset="75%"></stop>
            <stop stop-color="#7317A3" offset="75%"></stop>
            <stop stop-color="#7217A3" offset="76%"></stop>
            <stop stop-color="#7118A3" offset="76%"></stop>
            <stop stop-color="#7018A3" offset="77%"></stop>
            <stop stop-color="#6F18A3" offset="77%"></stop>
            <stop stop-color="#6F18A4" offset="77%"></stop>
            <stop stop-color="#6E18A4" offset="78%"></stop>
            <stop stop-color="#6D18A4" offset="78%"></stop>
            <stop stop-color="#6C18A4" offset="79%"></stop>
            <stop stop-color="#6B19A4" offset="79%"></stop>
            <stop stop-color="#6B19A4" offset="79%"></stop>
            <stop stop-color="#6A19A4" offset="80%"></stop>
            <stop stop-color="#6919A4" offset="80%"></stop>
            <stop stop-color="#6819A4" offset="80%"></stop>
            <stop stop-color="#6719A4" offset="81%"></stop>
            <stop stop-color="#6719A4" offset="81%"></stop>
            <stop stop-color="#661AA4" offset="82%"></stop>
            <stop stop-color="#651AA5" offset="82%"></stop>
            <stop stop-color="#641AA5" offset="82%"></stop>
            <stop stop-color="#631AA5" offset="83%"></stop>
            <stop stop-color="#621AA5" offset="83%"></stop>
            <stop stop-color="#621AA5" offset="84%"></stop>
            <stop stop-color="#611AA5" offset="84%"></stop>
            <stop stop-color="#601BA5" offset="84%"></stop>
            <stop stop-color="#5F1BA5" offset="85%"></stop>
            <stop stop-color="#5E1BA5" offset="85%"></stop>
            <stop stop-color="#5E1BA5" offset="86%"></stop>
            <stop stop-color="#5D1BA5" offset="86%"></stop>
            <stop stop-color="#5C1BA5" offset="86%"></stop>
            <stop stop-color="#5B1BA6" offset="87%"></stop>
            <stop stop-color="#5A1CA6" offset="87%"></stop>
            <stop stop-color="#5A1CA6" offset="88%"></stop>
            <stop stop-color="#591CA6" offset="88%"></stop>
            <stop stop-color="#581CA6" offset="88%"></stop>
            <stop stop-color="#571CA6" offset="89%"></stop>
            <stop stop-color="#561CA6" offset="89%"></stop>
            <stop stop-color="#551CA6" offset="89%"></stop>
            <stop stop-color="#551DA6" offset="90%"></stop>
            <stop stop-color="#541DA6" offset="90%"></stop>
            <stop stop-color="#531DA6" offset="91%"></stop>
            <stop stop-color="#521DA6" offset="91%"></stop>
            <stop stop-color="#511DA6" offset="91%"></stop>
            <stop stop-color="#511DA7" offset="92%"></stop>
            <stop stop-color="#501DA7" offset="92%"></stop>
            <stop stop-color="#4F1EA7" offset="93%"></stop>
            <stop stop-color="#4E1EA7" offset="93%"></stop>
            <stop stop-color="#4D1EA7" offset="93%"></stop>
            <stop stop-color="#4D1EA7" offset="94%"></stop>
            <stop stop-color="#4C1EA7" offset="94%"></stop>
            <stop stop-color="#4B1EA7" offset="95%"></stop>
            <stop stop-color="#4A1EA7" offset="95%"></stop>
            <stop stop-color="#491FA7" offset="95%"></stop>
            <stop stop-color="#481FA7" offset="96%"></stop>
            <stop stop-color="#481FA7" offset="96%"></stop>
            <stop stop-color="#471FA8" offset="96%"></stop>
            <stop stop-color="#461FA8" offset="97%"></stop>
            <stop stop-color="#451FA8" offset="97%"></stop>
            <stop stop-color="#441FA8" offset="98%"></stop>
            <stop stop-color="#4420A8" offset="98%"></stop>
            <stop stop-color="#4320A8" offset="98%"></stop>
            <stop stop-color="#4220A8" offset="100%"></stop>
        </linearGradient>
    </defs>
    <g id="Page-1" stroke="none" stroke-width="1" fill="none" fill-rule="evenodd">
        <g id="D/Homepage-unlogged-2" transform="translate(-64.000000, -130.000000)" fill-rule="nonzero">
            <g id="Group-2" transform="translate(0.000000, 106.000000)">
                <g id="logo-def" transform="translate(64.000000, 24.000000)">
                    <path d="M82.8564249,0 L85.5403805,0 L85.5403805,3.65379912 L82.8564249,3.65379912 C82.8564249,2.4464568 82.7616971,1.20734232 82.8564249,0 Z M43.1970339,1.30265882 C44.0495845,1.11202582 44.965287,1.01670932 45.8809895,1.01670932 L56.1115968,1.01670932 C57.9745777,1.01670932 59.8375587,1.87455781 61.1321725,3.27253313 C63.4687927,5.62367343 63.7529762,9.72228289 61.7005396,12.3593727 C61.3216282,12.8359552 61.0374447,13.2172212 60.7848371,13.6620315 C62.1741788,14.7740573 63.5635205,16.1084883 64.3213433,17.7924131 C65.4265015,20.4295029 65.0791661,23.7020361 63.4056408,26.0214042 C61.7321155,28.3725445 58.8587043,29.8658363 56.0484449,29.6752033 L45.1547427,29.6752033 C44.5863756,29.6752033 43.8601288,29.6752033 43.3864896,29.1986208 C43.1023061,28.8173548 43.1970339,28.277228 43.1023061,27.895962 L43.1023061,7.40291475 C43.1023061,5.43304044 42.8181225,3.36784963 43.1970339,1.30265882 Z M45.7231098,3.84443212 L45.7231098,12.6453222 C48.3439135,12.7406387 50.9331412,12.6453222 53.6486728,12.7406387 C55.0380145,12.7406387 56.5220841,12.9312717 57.8482739,12.2640562 C59.4270713,11.5015242 60.4690776,9.62696639 60.2796219,7.84772508 C60.0901662,6.35443326 59.0797359,4.95645794 57.6588182,4.38455895 C56.55366,3.81265996 55.2274702,3.90797645 54.0275842,3.90797645 C51.3120526,3.74911562 48.5017932,3.84443212 45.7231098,3.84443212 L45.7231098,3.84443212 Z M45.7231098,15.4412728 L45.7231098,26.8792527 C48.2491856,26.9745692 50.8384134,26.8792527 53.3644893,26.9745692 C55.0380145,26.9745692 56.8062676,27.1652022 58.385065,26.4979867 C60.816413,25.5765939 62.3952105,22.7488711 61.8268434,20.1435534 C61.3532042,17.6017801 59.0481599,15.473045 56.4273562,15.3777285 C53.4592171,15.282412 50.5542299,15.3777285 47.5860907,15.3777285 C47.1124515,15.4412728 46.3546287,15.4412728 45.7231098,15.4412728 Z M135.872442,1.39797532 C136.346081,1.01670932 136.9776,1.11202582 137.545967,1.11202582 L146.9556,1.11202582 C147.96603,1.11202582 149.008037,1.01670932 150.018467,1.30265882 C152.260359,1.87455781 154.12334,3.46316613 154.944315,5.62367343 C155.60741,7.21228175 155.60741,9.08683956 155.039043,10.6754479 C154.660131,11.8827902 153.839157,12.8359552 153.176062,13.757348 C154.754859,14.9646903 156.144201,16.4579821 156.807296,18.4278565 C157.659846,20.6836803 157.375663,23.2889979 156.144201,25.4495052 C154.660131,28.086595 151.755144,29.8658363 148.787005,29.8658363 L137.261784,29.8658363 C136.598689,29.8658363 135.682986,29.7705198 135.493531,29.0079878 C135.209347,27.9912785 135.398803,26.942797 135.398803,25.9260877 L135.398803,2.89126713 C135.525107,2.35114031 135.430379,1.68392481 135.872442,1.39797532 L135.872442,1.39797532 Z M138.30379,3.84443212 L138.30379,12.6453222 C141.082474,12.7406387 143.892733,12.6453222 146.576689,12.6453222 C147.871302,12.6453222 149.260644,12.7406387 150.492106,12.0734232 C152.165631,11.2155747 153.11291,9.18215606 152.639271,7.30759825 C152.355087,6.00493943 151.439385,4.76582494 150.207923,4.32101462 C149.008037,3.74911562 147.681847,3.84443212 146.387233,3.84443212 C143.703277,3.74911562 140.987746,3.84443212 138.30379,3.84443212 L138.30379,3.84443212 Z M138.30379,15.4412728 L138.30379,26.942797 C140.987746,27.0381135 143.703277,26.942797 146.387233,27.0381135 C147.776575,27.0381135 149.260644,27.13343 150.681562,26.6568475 C152.355087,26.0849485 153.744429,24.6869732 154.312796,22.9077319 C154.691707,21.5097566 154.596979,19.9211483 153.839157,18.5867173 C152.828726,16.7121595 150.77629,15.4095007 148.629125,15.5048172 C145.187347,15.4412728 141.745568,15.3459563 138.30379,15.4412728 L138.30379,15.4412728 L138.30379,15.4412728 Z M72.9731531,10.1988654 C74.5519505,9.27747256 76.4149315,8.99152306 78.2779124,8.89620656 L78.2779124,11.5968407 C76.6043872,11.8827902 74.8361341,12.0734232 73.636248,13.2807655 C71.9627228,14.6787408 71.4890836,17.0298811 71.3943557,19.0950719 C71.3943557,22.6535546 71.4890836,26.2120372 71.3943557,29.7705198 L68.6156723,29.7705198 L68.6156723,19.4763379 C68.6156723,17.7924131 68.805128,16.1084883 69.4682229,14.51988 C70.0997418,12.7406387 71.3943557,11.1520304 72.9731531,10.1988654 Z M95.6762599,9.65873855 C99.4022218,8.45139623 103.664975,8.73734573 106.948873,10.9613974 C106.475234,11.7239294 105.938443,12.4546892 105.370076,13.2172212 C103.317639,12.1051954 100.981019,11.4379799 98.675975,11.9145624 C97.0024498,12.2005119 95.2341967,12.8359552 94.1290385,14.2657027 C92.6449689,16.044944 92.3607854,18.4914008 92.5502411,20.7154524 C92.7396967,22.6853267 93.4659436,24.7505175 95.1710448,25.8625434 C97.1287536,27.2605187 99.6232535,27.4511517 101.959874,27.0698857 C103.443943,26.8792527 104.643829,26.0531764 105.970019,25.2906444 C106.633114,25.9578599 107.264633,26.5933032 107.833,27.3558352 C105.875291,29.1350765 103.191336,30.0564693 100.570532,29.992925 C97.5076649,30.0882415 94.1606144,29.230393 92.1081778,26.8157084 C89.6768298,24.0197577 89.4242222,19.9846926 90.0557411,16.42621 C90.4662285,13.4078542 92.7081208,10.6754479 95.6762599,9.65873855 L95.6762599,9.65873855 Z M117.747848,9.08683956 C120.084468,8.70557357 122.48424,8.80089006 124.82086,9.56342206 C127.15748,10.4212705 129.115189,12.2640562 130.030892,14.6151965 C131.041322,17.3158306 131.13605,20.4295029 130.315075,23.3207701 C129.65198,25.7672269 127.883727,27.8006455 125.578683,28.9444435 C123.147335,30.0564693 120.463379,30.0564693 117.937303,29.802292 C114.874436,29.421026 111.969449,27.3558352 110.769563,24.3692515 C109.569677,21.2873514 109.569677,17.7288688 110.769563,14.6469687 C111.874721,11.6921572 114.653405,9.56342206 117.747848,9.08683956 L117.747848,9.08683956 Z M118.66355,11.8827902 C116.990025,12.0734232 115.3165,12.804183 114.274493,14.2339305 C112.600968,16.3944378 112.600968,19.2857049 112.97988,21.8274782 C113.358791,23.9879856 114.937588,25.9578599 117.084753,26.6886197 C119.610829,27.5464682 122.48424,27.4511517 124.82086,26.2120372 C126.399658,25.3541887 127.441664,23.7655804 127.788999,22.0816556 C128.262639,20.1117813 128.167911,18.0465905 127.599544,16.1720326 C127.125904,14.7740573 126.210202,13.5349428 124.915588,12.804183 C122.957879,11.6921572 120.715987,11.5332964 118.66355,11.8827902 L118.66355,11.8827902 L118.66355,11.8827902 Z M164.922314,10.5801314 C166.59584,9.37278906 168.743004,8.89620656 170.890169,8.89620656 L170.890169,11.5968407 C169.311371,11.8827902 167.543118,12.0734232 166.343232,13.0901325 C164.669707,14.4881078 164.006612,16.7439316 164.006612,18.8091224 C163.911884,22.4629216 164.006612,26.0214042 164.006612,29.6752033 L161.227929,29.6752033 L161.227929,20.8743133 C161.227929,19.2857049 161.133201,17.6970966 161.512112,16.1084883 C161.859447,14.0432975 163.059334,11.8827902 164.922314,10.5801314 Z M176.447536,11.0567139 C179.068339,9.08683956 182.41539,8.61025707 185.572985,8.99152306 C187.909605,9.27747256 190.214649,10.3894984 191.730295,12.2640562 C193.309092,14.2339305 193.972187,16.7439316 193.972187,19.2857049 L193.972187,23.5114031 C193.972187,24.7187454 193.782731,25.9578599 192.961757,26.8792527 C192.046054,27.9912785 190.625136,28.7538105 189.235795,29.230393 C186.993902,29.992925 184.59413,29.8976085 182.25751,29.8976085 C179.478827,29.802292 176.479112,29.3257095 174.426675,27.3558352 C173.037333,26.1484929 172.847877,24.1786186 173.132061,22.3993772 C173.321517,20.7154524 174.142491,19.1268441 175.658137,18.2689956 C177.331662,17.3476028 179.384099,17.2522863 181.24708,17.1569698 L190.90932,17.1569698 C190.530409,15.473045 189.709434,13.7891202 188.130636,12.8359552 C186.172928,11.7239294 183.836307,11.3426634 181.720719,11.8192459 C180.426105,12.0098789 179.194643,12.5817779 178.089485,13.1219047 C177.489542,12.5500057 176.921175,11.7874737 176.447536,11.0567139 L176.447536,11.0567139 L176.447536,11.0567139 Z M176.731719,20.9696298 C175.816017,21.7321617 175.721289,23.0348206 175.816017,24.1468464 C175.910744,25.2588722 177.015903,25.9260877 177.963181,26.3073537 C180.394529,27.1652022 183.078485,27.324063 185.604561,26.9745692 C186.899174,26.8792527 188.225364,26.5933032 189.42525,26.0531764 C190.183073,25.6719104 190.90932,25.1317835 191.004048,24.2739351 C191.288231,22.8759597 191.098776,21.4779844 191.098776,19.9529204 C187.562269,19.8576039 183.931035,19.9529204 180.394529,19.9529204 C179.163067,20.2388699 177.773725,20.2388699 176.731719,20.9696298 L176.731719,20.9696298 L176.731719,20.9696298 Z M226.905901,9.18215606 C229.87404,8.70557357 233.063211,8.89620656 235.652439,10.3894984 C238.273242,11.8827902 239.757312,14.8693738 239.946768,17.7924131 C240.041495,20.1435534 240.136223,22.4629216 239.031065,24.6234289 C237.831179,27.4193795 235.115647,29.2939373 232.147508,29.6752033 C229.463553,30.0564693 226.558565,29.9611528 224.064066,28.7538105 C221.38011,27.4511517 219.675009,24.6234289 219.327673,21.7321617 C218.948762,18.9362111 219.138218,16.0131718 220.527559,13.5031707 C221.790597,11.2473469 224.285097,9.56342206 226.905901,9.18215606 L226.905901,9.18215606 Z M228.579426,11.7874737 C226.811173,11.9781067 225.04292,12.5500057 223.843034,13.757348 C222.54842,15.1553233 222.074781,17.0298811 221.980053,18.9044389 C221.885325,20.7789968 222.264237,22.8441876 223.274667,24.4327959 C223.937762,25.3541887 224.853464,26.0214042 225.895471,26.4979867 C228.137363,27.4193795 230.631863,27.4193795 232.873755,26.6886197 C234.831464,26.1167207 236.410261,24.3374794 236.978628,22.3676051 C237.35754,20.9696298 237.452268,19.3810214 237.262812,17.951274 C237.073356,16.0767161 236.157654,14.2021583 234.578856,13.0901325 C232.842179,11.8827902 230.600287,11.6286129 228.579426,11.7874737 Z M82.8564249,9.37278906 C83.7721274,9.27747256 84.7194059,9.27747256 85.5403805,9.37278906 L85.5403805,29.7705198 L82.8564249,29.7705198 L82.8564249,9.37278906 Z M197.129782,9.37278906 L200.003193,9.37278906 C201.866174,13.2172212 203.444971,17.1569698 205.213224,21.0649463 C205.781592,22.3676051 206.318383,23.7020361 207.076205,24.9093784 C209.318098,19.9529204 211.465262,14.9964625 213.675579,10.0082324 C213.865034,9.72228289 213.959762,9.34101689 214.338674,9.34101689 C215.254376,9.24570039 216.106927,9.34101689 217.022629,9.34101689 C214.591281,15.2506398 211.907325,21.0331741 209.38125,26.942797 C209.002338,27.8006455 208.718155,28.7220383 208.181364,29.4845703 C207.644572,30.2471023 206.41311,30.0564693 205.939471,29.2939373 C205.086921,27.895962 204.644857,26.3073537 203.887035,24.8140619 C201.58199,19.6669709 199.24537,14.51988 197.129782,9.37278906 L197.129782,9.37278906 Z" id="Shape" fill="#332C32"></path>
                    <path d="M6.08582768,0.155127201 C0.117411543,1.25045123 -2.94762213,10.9532494 3.93681751,20.6940357 C10.8180875,30.4348219 19.6233239,33.0496706 28.5394973,26.0440288 C37.4556707,19.0383869 40.1023131,6.79671628 36.3399605,3.98559564 C31.0942203,0.0696539382 26.8691015,9.53186069 20.4379192,8.41121125 C14.0067368,7.2905618 13.7341485,-1.24726744 6.08582768,0.155127201 Z" id="Path" fill="url(#linearGradient-1)"></path>
                </g>
            </g>
        </g>
    </g>
</svg>