<?xml version="1.0" encoding="UTF-8"?>
<svg width="70px" height="70px" viewBox="0 0 70 70" version="1.1" xmlns="http://www.w3.org/2000/svg" xmlns:xlink="http://www.w3.org/1999/xlink">
    <title>E0435F60-1E87-4974-9707-E6AD3057D0D5</title>
    <defs>
        <rect id="path-1" x="0" y="0" width="70" height="70"></rect>
    </defs>
    <g id="Page-1" stroke="none" stroke-width="1" fill="none" fill-rule="evenodd">
        <g id="D/Homepage-unlogged" transform="translate(-162.000000, -563.000000)">
            <g id="d/-highlights-categories" transform="translate(137.000000, 538.000000)">
                <g id="icon" transform="translate(25.000000, 25.000000)">
                    <mask id="mask-2" fill="white">
                        <use xlink:href="#path-1"></use>
                    </mask>
                    <g id="safe-area"></g>
                    <g id="Group-13" mask="url(#mask-2)" stroke-linecap="round" stroke-linejoin="round">
                        <g transform="translate(11.000000, 6.000000)">
                            <polygon id="Stroke-1" stroke="#291660" stroke-width="2" points="6 42 40 42 40 35 6 35"></polygon>
                            <g id="Group-12" stroke="none" stroke-width="1" fill-rule="evenodd">
                                <path d="M37.199682,42.291503 L35.1129133,55.9506453 C34.932916,57.1299909 33.9249311,58 32.7405489,58 L12.8592471,58 C11.6748649,58 10.66688,57.1299909 10.4868827,55.9506453 L8.400114,42.291503" id="Stroke-2" stroke="#291660" stroke-width="2"></path>
                                <path d="M26.2323265,22.0740633 C18.0244496,6.80419588 34.0742089,0 48,0 C42.4500832,5.57289138 44.6232507,27.6070792 26.2323265,22.0740633 Z" id="Stroke-4" stroke="#291660" stroke-width="2"></path>
                                <path d="M18.1389279,24.206673 C22.4972625,12.302049 12.8326075,7.94837863 0,10.7070324 C4.97752534,13.6686882 0.969585456,29.7964812 18.1389279,24.206673 Z" id="Stroke-6" stroke="#291660" stroke-width="2"></path>
                                <path d="M22.799898,35.0414275 C24.9754654,14.6638819 38.399664,7.24947135 38.399664,7.24947135" id="Stroke-8" stroke="#291660" stroke-width="2"></path>
                                <path d="M10.800078,16.9162387 C10.800078,16.9162387 19.865942,21.9912916 22.799898,35.0414275" id="Stroke-10" stroke="#291660" stroke-width="2"></path>
                            </g>
                        </g>
                    </g>
                </g>
            </g>
        </g>
    </g>
</svg>